<?xml version="1.0" encoding="utf-8"?>
<!-- Generator: Adobe Illustrator 16.0.0, SVG Export Plug-In . SVG Version: 6.00 Build 0)  -->
<!DOCTYPE svg PUBLIC "-//W3C//DTD SVG 1.1//EN" "http://www.w3.org/Graphics/SVG/1.1/DTD/svg11.dtd">
<svg version="1.1" xmlns="http://www.w3.org/2000/svg" xmlns:xlink="http://www.w3.org/1999/xlink" x="0px" y="0px" width="500px"
	 height="500px" viewBox="0 0 500 500" enable-background="new 0 0 500 500" xml:space="preserve">
<g id="BACKGROUND">
	<g>
		<g>
			<g opacity="0.41">
				<g>
					<g>
						<path fill="#E1E2FE" d="M478.851,296.7c0.428-7.37,0.236-14.775-0.595-22.107c-3.902-34.45-21.576-66.936-47.589-89.856
							c-9.281-8.177-19.84-15.503-25.88-26.297c-10.171-18.178-9.4-39.069-22.023-57.018
							c-12.639-17.969-31.056-31.982-51.824-39.179c-61.927-21.458-148.625,13.48-140.819,88.091
							c0.028,0.268,0.059,0.657,0.092,1.149c1.038,15.498-11.126,28.528-26.607,28.896c-57.135,1.355-106.316,45.407-116.84,101.206
							c-6.768,35.886,4.314,75.219,30.564,100.604c19.594,18.95,45.885,29.36,72.188,36.514
							c52.739,14.343,108.237,17.349,162.616,11.865c50.901-5.134,104.594-19.768,137.513-58.929
							C467.207,350.75,477.268,323.96,478.851,296.7z"/>
					</g>
				</g>
			</g>
			<g opacity="0.31">
				<circle fill="#E1E2FE" cx="217.158" cy="43.609" r="13.293"/>
			</g>
			<g opacity="0.31">
				<circle fill="#E1E2FE" cx="469.695" cy="199.152" r="6.859"/>
			</g>
			<g opacity="0.31">
				<circle fill="#E1E2FE" cx="154.659" cy="73.367" r="9.191"/>
			</g>
			<g opacity="0.31">
				<circle fill="#E1E2FE" cx="48.677" cy="406.697" r="20.927"/>
			</g>
		</g>
	</g>
	<g>
		<g>
			<path opacity="0.47" fill="#ECF1F7" d="M476.499,93.226c5.966-11.62,1.382-25.876-10.239-31.842
				c-11.62-5.965-33.95-5.526-39.915,6.094c-5.966,11.621,11.919,21.593,19.211,32.43
				C455.727,115.022,470.533,104.847,476.499,93.226z"/>
			<path opacity="0.47" fill="#E1E2FE" d="M422.702,439.102c8.408,5.429,19.624,3.013,25.052-5.395s6.783-25.465-1.624-30.893
				s-17.364,7.451-26.179,12.191C407.659,421.615,414.295,433.674,422.702,439.102z"/>
			<path opacity="0.47" fill="#E1E2FE" d="M79.536,28.634c-9.248-8.588-23.706-8.053-32.294,1.195S33.223,59.96,42.47,68.548
				s23.201-5.438,35.187-9.386C94.375,53.655,88.784,37.222,79.536,28.634z"/>
		</g>
		<g>
			<path opacity="0.47" fill="#E1E2FE" d="M453.792,350.179c8.163-17.533,11.41-36.983,7.199-57.52
				c-4.65-22.678-18.77-40.101-13.87-64.293c2.984-14.736,3.731-28.387,5.244-42.968c3.107-29.94-16.332-56.321-40.447-70.567
				c-19.587-11.57-42.55-15.911-65.069-15.603c-20.268,0.278-40.5,4.021-60.14,9.053c-18.927,4.85-37.432,11.24-57.271,9.224
				c-16.5-1.677-31.36-8.81-46.726-14.129c-36.685-12.698-81.124-14.49-114.67,4.842c-21.529,12.407-36.598,32.555-43.281,54.217
				c-5.341,17.312-6.02,33.5-2.016,51.175c3.705,16.355,9.455,32.391,9.29,49.362c-0.169,17.319-9.077,32.78-5.568,50.595
				c2.482,12.601,10.042,23.657,18.778,33.07c24.036,25.898,57.604,41.539,92.145,48.983c45.984,9.911,92.863,0.447,138.443,10.313
				c29.89,6.47,59.487,18.952,90.607,14.07c19.44-3.05,37.54-12.544,52.479-25.352C433.577,382.088,445.952,367.018,453.792,350.179
				z"/>
			<g>
				<path opacity="0.81" fill="#E1E2FE" d="M411.839,322.589c1.271-14.292-3.549-29.021,0.479-43.175
					c4.824-16.945,18.788-29.638,24.479-46.275c8.411-24.584,8.007-52.131-2.207-76.086c-4.923-11.545-12.113-22.274-21.935-29.695
					c-15.139-11.438-34.975-13.948-53.63-12.497c-27.764,2.159-57.061,14.179-84.975,10.901
					c-15.404-1.809-20.107-18.481-28.063-29.479c-8.998-12.438-21.252-22.208-34.799-28.712
					c-24.952-11.979-54.898-13.112-80.4-2.251c-27.227,11.596-50.958,39.914-49.398,71.938c0.722,14.815,6.652,29.53,3.907,44.087
					c-3.446,18.269-17.211,34.917-27.186,49.802c-11.016,16.439-17.685,36.042-18.993,56.043c-0.015,0.227-0.029,0.453-0.042,0.68
					c-2.045,34.503,19.717,65.971,52.55,76.77c0,0,69.859,22.975,69.862,22.976c70.886,23.313,141.711,22.543,206.888-11.672
					c14.104-7.403,37.068-29.463,41.799-44.674C411.067,328.4,411.58,325.504,411.839,322.589z"/>
			</g>
		</g>
	</g>
	<circle opacity="0.58" fill="#3E479B" cx="467.651" cy="381.579" r="4.5"/>
	<circle opacity="0.58" fill="#3E479B" cx="259.774" cy="30.861" r="4.5"/>
	<circle opacity="0.58" fill="#3E479B" cx="97.208" cy="423.078" r="4.5"/>
	<circle opacity="0.58" fill="#EF929C" cx="381.238" cy="442.001" r="3.5"/>
	<circle opacity="0.58" fill="#EF929C" cx="452.131" cy="460.07" r="4.5"/>
	<circle opacity="0.58" fill="#3E479B" cx="76.393" cy="82.558" r="1.5"/>
	<circle opacity="0.58" fill="#EF929C" cx="391.578" cy="61.627" r="5.404"/>
	<circle opacity="0.58" fill="#EF929C" cx="106" cy="35.361" r="2.119"/>
	<circle opacity="0.58" fill="#3E479B" cx="444.069" cy="28.644" r="1.801"/>
	<circle opacity="0.58" fill="#3E479B" cx="63.017" cy="458.269" r="1.801"/>
</g>
<g id="OBJECTS">
	<g>
		<g opacity="0.73">
			<g>
				<path fill="#FFFFFF" d="M127.907,199.048c-0.492,0-0.988-0.066-1.476-0.2l-8.4-2.298c-2.956-0.809-4.703-3.871-3.894-6.828
					l2.808-10.26c-5.138-2.652-9.68-6.174-13.526-10.49l-9.238,5.269c-1.29,0.736-2.788,0.924-4.22,0.533
					c-1.432-0.392-2.625-1.318-3.361-2.607l-4.314-7.565c-1.519-2.662-0.588-6.063,2.074-7.581l9.238-5.269
					c-1.756-5.508-2.476-11.21-2.143-16.982l-10.26-2.808c-2.956-0.809-4.702-3.871-3.894-6.827l2.298-8.4
					c0.809-2.956,3.872-4.702,6.828-3.894l10.26,2.808c2.652-5.138,6.174-9.68,10.49-13.526l-5.269-9.238
					c-0.736-1.29-0.925-2.789-0.533-4.22c0.392-1.432,1.318-2.625,2.607-3.361l7.565-4.315c2.664-1.519,6.063-0.587,7.581,2.074
					l5.269,9.238c5.507-1.757,11.211-2.476,16.982-2.143l2.808-10.26c0.809-2.956,3.872-4.703,6.827-3.894l8.4,2.298
					c2.956,0.809,4.703,3.872,3.894,6.828l-2.808,10.26c5.138,2.652,9.68,6.174,13.526,10.49l9.238-5.269
					c1.289-0.736,2.788-0.925,4.22-0.533s2.625,1.318,3.361,2.607l4.315,7.565c0.736,1.29,0.925,2.789,0.533,4.22
					c-0.392,1.432-1.318,2.625-2.607,3.361l-9.238,5.269c1.756,5.508,2.476,11.209,2.143,16.982l10.26,2.808
					c1.432,0.392,2.625,1.317,3.361,2.607c0.735,1.289,0.924,2.788,0.533,4.22l-2.298,8.401c-0.809,2.956-3.871,4.702-6.828,3.894
					l-10.26-2.808c-2.653,5.139-6.174,9.68-10.49,13.526l5.269,9.238c0.735,1.29,0.924,2.789,0.533,4.22
					c-0.392,1.432-1.318,2.625-2.608,3.361l-7.564,4.314c-1.29,0.736-2.789,0.924-4.22,0.533c-1.432-0.392-2.625-1.318-3.361-2.607
					l-5.269-9.238c-5.508,1.757-11.208,2.477-16.982,2.143l-2.808,10.26c-0.392,1.432-1.317,2.625-2.607,3.361
					C129.801,198.801,128.86,199.048,127.907,199.048z M104.084,165.139l0.806,0.952c4.013,4.745,8.884,8.523,14.48,11.23
					l1.123,0.543l-3.461,12.65c-0.18,0.659-0.093,1.349,0.246,1.942c0.338,0.594,0.888,1.02,1.547,1.2l8.4,2.298
					c0.658,0.181,1.349,0.093,1.942-0.245s1.02-0.888,1.2-1.547l3.461-12.65l1.243,0.104c6.196,0.519,12.311-0.253,18.18-2.294
					l1.178-0.409l6.496,11.39c0.339,0.594,0.888,1.02,1.547,1.2c0.661,0.182,1.35,0.094,1.942-0.245l7.565-4.315
					c0.594-0.339,1.02-0.888,1.2-1.547c0.18-0.659,0.093-1.349-0.245-1.942l-6.497-11.391l0.952-0.805
					c4.745-4.012,8.523-8.884,11.23-14.48l0.543-1.123l12.65,3.461c1.356,0.37,2.77-0.432,3.142-1.792l2.298-8.401
					c0.18-0.659,0.093-1.349-0.245-1.942s-0.888-1.02-1.547-1.2l-12.65-3.461l0.104-1.243c0.519-6.195-0.253-12.311-2.294-18.18
					l-0.41-1.178l11.391-6.497c0.594-0.338,1.02-0.888,1.2-1.546c0.18-0.659,0.093-1.349-0.245-1.942l-4.315-7.565
					c-0.339-0.594-0.888-1.02-1.547-1.2c-0.66-0.18-1.349-0.093-1.942,0.245l-11.39,6.497l-0.806-0.952
					c-4.013-4.745-8.884-8.523-14.48-11.23l-1.123-0.543l3.461-12.65c0.18-0.659,0.093-1.349-0.246-1.942
					c-0.338-0.593-0.888-1.02-1.547-1.2l-8.4-2.298c-1.357-0.373-2.77,0.432-3.142,1.792l-3.461,12.65l-1.243-0.104
					c-6.197-0.521-12.312,0.253-18.18,2.294l-1.178,0.41l-6.497-11.391c-0.338-0.594-0.888-1.02-1.546-1.2
					c-0.659-0.179-1.349-0.093-1.942,0.245l-7.565,4.315c-0.594,0.339-1.02,0.888-1.2,1.547c-0.18,0.659-0.093,1.349,0.245,1.942
					l6.497,11.39l-0.952,0.806c-4.745,4.013-8.523,8.884-11.23,14.48l-0.543,1.123l-12.65-3.461
					c-0.658-0.18-1.349-0.094-1.942,0.246c-0.593,0.338-1.02,0.888-1.2,1.547l-2.298,8.4c-0.18,0.659-0.093,1.349,0.245,1.942
					s0.888,1.02,1.547,1.2l12.65,3.461l-0.104,1.243c-0.519,6.194,0.253,12.311,2.294,18.18l0.409,1.178l-11.39,6.496
					c-0.594,0.339-1.02,0.888-1.2,1.547c-0.18,0.659-0.093,1.349,0.245,1.942l4.315,7.565c0.338,0.593,0.888,1.02,1.547,1.2
					c0.657,0.18,1.348,0.094,1.942-0.245L104.084,165.139z M138.762,162.492c-2.219,0-4.453-0.298-6.651-0.899l0,0
					c-6.455-1.766-11.836-5.94-15.151-11.753c-3.316-5.813-4.169-12.57-2.403-19.025s5.94-11.836,11.753-15.151
					s12.57-4.168,19.025-2.402s11.836,5.94,15.151,11.753c3.315,5.813,4.168,12.569,2.402,19.024s-5.94,11.836-11.753,15.151
					C147.302,161.376,143.059,162.491,138.762,162.492z M138.688,115.362c-3.782,0-7.517,0.982-10.891,2.906
					c-5.117,2.918-8.792,7.655-10.346,13.337s-0.804,11.629,2.115,16.747c2.918,5.117,7.655,8.792,13.337,10.346
					c5.681,1.554,11.629,0.803,16.746-2.115s8.792-7.655,10.346-13.337s0.804-11.629-2.115-16.746
					c-2.918-5.117-7.655-8.792-13.337-10.346C142.608,115.625,140.641,115.362,138.688,115.362z"/>
			</g>
		</g>
		<g opacity="0.69">
			<path fill="#FFFFFF" d="M371.08,171.986l-56.575,1.027c-1.635,0.03-2.984-1.004-3.008-2.304l-0.682-37.566
				c-0.024-1.301,1.287-2.383,2.922-2.412l56.575-1.027c1.636-0.03,2.984,1.004,3.008,2.305l0.683,37.566
				C374.026,170.874,372.716,171.956,371.08,171.986z M313.75,131.432c-1.248,0.023-2.25,0.785-2.232,1.698l0.682,37.566
				c0.017,0.913,1.045,1.638,2.293,1.615l56.575-1.027c1.248-0.022,2.25-0.784,2.233-1.697l-0.682-37.566
				c-0.017-0.914-1.046-1.638-2.294-1.616L313.75,131.432z"/>
			
				<rect x="311.264" y="137.875" transform="matrix(0.9998 -0.0182 0.0182 0.9998 -2.4537 6.2331)" fill="#FFFFFF" width="61.44" height="0.702"/>
			<path fill="#FFFFFF" d="M315.69,136.539c-0.729,0.014-1.334-0.569-1.347-1.298c-0.014-0.729,0.569-1.333,1.298-1.347
				c0.729-0.013,1.334,0.569,1.347,1.299C317.002,135.922,316.419,136.526,315.69,136.539z M315.654,134.596
				c-0.342,0.006-0.615,0.29-0.608,0.632c0.006,0.342,0.289,0.615,0.631,0.609c0.343-0.006,0.616-0.29,0.609-0.632
				C316.28,134.863,315.997,134.59,315.654,134.596z"/>
			<path fill="#FFFFFF" d="M319.335,136.473c-0.729,0.013-1.333-0.569-1.346-1.299c-0.014-0.729,0.568-1.333,1.298-1.346
				c0.729-0.014,1.333,0.569,1.347,1.298S320.064,136.46,319.335,136.473z M319.3,134.53c-0.342,0.006-0.615,0.29-0.608,0.632
				c0.006,0.342,0.289,0.616,0.631,0.609s0.615-0.29,0.609-0.632C319.926,134.797,319.642,134.524,319.3,134.53z"/>
			<path fill="#FFFFFF" d="M322.912,136.408c-0.729,0.013-1.334-0.569-1.347-1.299c-0.014-0.729,0.569-1.333,1.298-1.346
				c0.729-0.014,1.334,0.569,1.347,1.298C324.224,135.791,323.641,136.395,322.912,136.408z M322.877,134.465
				c-0.343,0.006-0.616,0.29-0.609,0.631c0.006,0.342,0.289,0.616,0.632,0.609c0.342-0.006,0.615-0.29,0.608-0.632
				C323.502,134.732,323.219,134.459,322.877,134.465z"/>
		</g>
		<g opacity="0.69">
			<path fill="#FFFFFF" d="M181.194,396.524l-56.575,1.027c-1.635,0.029-2.984-1.004-3.008-2.305l-0.682-37.565
				c-0.023-1.301,1.288-2.383,2.922-2.413l56.575-1.027c1.635-0.029,2.985,1.004,3.008,2.305l0.682,37.566
				C184.14,395.413,182.829,396.495,181.194,396.524z M123.863,355.971c-1.248,0.022-2.25,0.784-2.233,1.698l0.682,37.565
				c0.017,0.914,1.045,1.638,2.293,1.615l56.576-1.027c1.248-0.022,2.25-0.784,2.233-1.697l-0.682-37.566
				c-0.017-0.913-1.045-1.638-2.293-1.615L123.863,355.971z"/>
			
				<rect x="121.377" y="362.414" transform="matrix(0.9998 -0.0182 0.0182 0.9998 -6.5597 2.8206)" fill="#FFFFFF" width="61.44" height="0.702"/>
			<path fill="#FFFFFF" d="M125.803,361.078c-0.729,0.013-1.333-0.569-1.346-1.299c-0.014-0.729,0.569-1.333,1.298-1.347
				s1.333,0.569,1.347,1.299C127.115,360.46,126.533,361.064,125.803,361.078z M125.768,359.135
				c-0.342,0.006-0.615,0.29-0.609,0.632c0.006,0.342,0.29,0.615,0.632,0.609c0.342-0.007,0.616-0.29,0.609-0.632
				S126.11,359.129,125.768,359.135z"/>
			<path fill="#FFFFFF" d="M129.449,361.012c-0.729,0.014-1.333-0.569-1.346-1.299c-0.014-0.729,0.569-1.333,1.298-1.347
				c0.729-0.013,1.333,0.569,1.347,1.299S130.178,360.998,129.449,361.012z M129.414,359.068c-0.342,0.007-0.615,0.29-0.609,0.632
				c0.006,0.342,0.29,0.615,0.631,0.609s0.615-0.29,0.609-0.632C130.039,359.336,129.755,359.063,129.414,359.068z"/>
			<path fill="#FFFFFF" d="M133.025,360.946c-0.729,0.014-1.333-0.569-1.347-1.298c-0.013-0.729,0.569-1.334,1.298-1.347
				c0.729-0.014,1.333,0.569,1.347,1.298C134.337,360.329,133.754,360.934,133.025,360.946z M132.99,359.004
				c-0.342,0.006-0.615,0.289-0.609,0.632c0.006,0.342,0.29,0.615,0.631,0.608c0.342-0.006,0.616-0.289,0.609-0.631
				C133.615,359.271,133.332,358.997,132.99,359.004z"/>
		</g>
		<g opacity="0.55">
			<g>
				<path fill="#FFFFFF" d="M416.281,290.238l-5.854-4.692c1.944-3.626,3.053-7.546,3.346-11.499l7.455-0.821
					c1.408-0.155,2.424-1.422,2.269-2.83l-0.603-5.472c-0.155-1.408-1.422-2.424-2.83-2.269l-7.455,0.821
					c-1.146-3.795-3.081-7.38-5.769-10.496l4.692-5.854c0.886-1.105,0.708-2.719-0.397-3.605l-4.295-3.443
					c-1.105-0.886-2.72-0.708-3.605,0.397l-4.692,5.854c-3.627-1.945-7.546-3.053-11.499-3.346l-0.821-7.455
					c-0.155-1.408-1.422-2.424-2.83-2.269l-5.472,0.603c-1.408,0.155-2.424,1.422-2.269,2.83l0.82,7.455
					c-3.795,1.146-7.379,3.081-10.495,5.769l-5.854-4.692c-1.105-0.886-2.72-0.708-3.605,0.397l-3.443,4.295
					c-0.886,1.105-0.708,2.719,0.397,3.605l5.854,4.692c-1.945,3.627-3.053,7.546-3.346,11.499l-7.455,0.821
					c-1.408,0.155-2.424,1.422-2.269,2.83l0.603,5.472c0.155,1.408,1.422,2.424,2.83,2.269l7.455-0.82
					c1.146,3.794,3.08,7.379,5.768,10.495l-4.691,5.854c-0.886,1.105-0.708,2.72,0.397,3.605l4.295,3.443
					c1.105,0.886,2.72,0.708,3.605-0.397l4.692-5.854c3.626,1.945,7.546,3.053,11.499,3.346l0.821,7.455
					c0.154,1.408,1.422,2.424,2.83,2.269l5.472-0.603c1.408-0.155,2.424-1.422,2.269-2.83l-0.821-7.455
					c3.795-1.146,7.38-3.08,10.496-5.769l5.854,4.692c1.105,0.886,2.719,0.708,3.605-0.397l3.442-4.295
					C417.564,292.738,417.387,291.124,416.281,290.238z M375.564,283.497c-6.416-5.143-7.447-14.513-2.305-20.929
					s14.513-7.448,20.929-2.306c6.416,5.144,7.448,14.514,2.306,20.93C391.351,287.607,381.98,288.64,375.564,283.497z"/>
				<path fill="#FFFFFF" d="M386.074,311.016c-0.693,0-1.361-0.233-1.911-0.674c-0.639-0.512-1.04-1.242-1.129-2.056l-0.776-7.045
					c-3.833-0.337-7.501-1.404-10.915-3.176l-4.435,5.531c-0.512,0.639-1.241,1.04-2.056,1.13c-0.814,0.091-1.613-0.144-2.252-0.654
					l-4.295-3.444c-0.639-0.512-1.04-1.241-1.13-2.056c-0.09-0.813,0.143-1.613,0.654-2.252l4.434-5.531
					c-2.471-2.947-4.312-6.296-5.475-9.963l-7.045,0.775c-0.814,0.088-1.613-0.143-2.252-0.655c-0.639-0.512-1.04-1.242-1.13-2.056
					l-0.603-5.472c-0.09-0.813,0.143-1.613,0.655-2.252c0.512-0.639,1.242-1.04,2.056-1.13l7.045-0.776
					c0.337-3.832,1.404-7.5,3.176-10.915l-5.531-4.435c-0.639-0.512-1.04-1.241-1.13-2.055c-0.09-0.814,0.143-1.614,0.655-2.252
					l3.443-4.295c0.512-0.639,1.241-1.04,2.056-1.13c0.806-0.093,1.613,0.143,2.252,0.655l5.531,4.434
					c2.948-2.472,6.296-4.312,9.963-5.476l-0.775-7.044c-0.186-1.68,1.031-3.197,2.711-3.382l5.472-0.603
					c1.684-0.177,3.196,1.031,3.382,2.711l0.776,7.045c3.831,0.337,7.499,1.405,10.915,3.176l4.435-5.531
					c1.056-1.319,2.989-1.53,4.308-0.475l4.295,3.443c0.639,0.512,1.04,1.242,1.13,2.056c0.09,0.813-0.143,1.613-0.655,2.252
					l-4.434,5.531c2.472,2.948,4.313,6.297,5.476,9.964l7.045-0.776c0.812-0.092,1.613,0.143,2.252,0.655
					c0.639,0.512,1.04,1.242,1.13,2.056l0.603,5.472c0.09,0.813-0.143,1.613-0.655,2.252c-0.512,0.639-1.242,1.04-2.056,1.13
					l-7.045,0.776c-0.337,3.831-1.404,7.499-3.176,10.915l5.531,4.435c0.639,0.512,1.04,1.241,1.13,2.056
					c0.09,0.813-0.144,1.613-0.656,2.252l-3.441,4.295c-1.059,1.318-2.991,1.529-4.309,0.476l-5.531-4.435
					c-2.947,2.472-6.295,4.312-9.964,5.476l0.776,7.045c0.09,0.813-0.143,1.613-0.655,2.252c-0.512,0.639-1.242,1.04-2.056,1.13
					l-5.472,0.603C386.302,311.01,386.188,311.016,386.074,311.016z M371.081,296.794l0.366,0.196
					c3.517,1.887,7.318,2.992,11.3,3.287l0.414,0.031l0.867,7.868c0.06,0.549,0.33,1.04,0.761,1.385
					c0.43,0.346,0.968,0.507,1.518,0.441l5.472-0.603c0.548-0.061,1.04-0.331,1.385-0.761c0.346-0.431,0.502-0.969,0.441-1.518
					l-0.867-7.868l0.398-0.12c3.822-1.155,7.293-3.063,10.314-5.669l0.314-0.271l6.178,4.953c0.887,0.709,2.189,0.567,2.903-0.32
					l3.441-4.295c0.346-0.431,0.503-0.97,0.442-1.518c-0.061-0.549-0.33-1.04-0.761-1.385v-0.001l-6.178-4.952l0.196-0.366
					c1.887-3.519,2.992-7.32,3.287-11.3l0.031-0.414l7.868-0.867c0.548-0.061,1.04-0.331,1.385-0.761
					c0.346-0.431,0.502-0.969,0.441-1.518l-0.603-5.472c-0.061-0.548-0.331-1.04-0.761-1.385c-0.431-0.345-0.967-0.507-1.518-0.441
					l-7.868,0.867l-0.12-0.398c-1.154-3.821-3.062-7.291-5.669-10.314l-0.271-0.314l4.953-6.178c0.345-0.431,0.501-0.969,0.44-1.518
					c-0.061-0.548-0.33-1.04-0.761-1.385l-4.295-3.443c-0.89-0.712-2.19-0.569-2.903,0.319l-4.952,6.178l-0.366-0.197
					c-3.519-1.886-7.32-2.993-11.3-3.288l-0.414-0.031l-0.867-7.868c-0.124-1.131-1.151-1.945-2.278-1.826l-5.472,0.603
					c-0.548,0.061-1.04,0.331-1.385,0.761c-0.346,0.43-0.502,0.969-0.441,1.518l0.865,7.868l-0.397,0.12
					c-3.821,1.154-7.291,3.062-10.313,5.668l-0.314,0.272l-6.178-4.952c-0.43-0.345-0.973-0.502-1.518-0.441
					c-0.549,0.06-1.04,0.331-1.385,0.761l-3.444,4.295c-0.345,0.431-0.501,0.969-0.44,1.517c0.061,0.549,0.33,1.04,0.761,1.385
					l6.178,4.953l-0.196,0.366c-1.887,3.518-2.992,7.319-3.287,11.3l-0.031,0.414l-7.868,0.867c-0.548,0.061-1.04,0.331-1.385,0.761
					c-0.346,0.431-0.502,0.969-0.441,1.518l0.603,5.472c0.061,0.548,0.331,1.04,0.761,1.385c0.431,0.345,0.968,0.502,1.518,0.441
					l7.868-0.865l0.12,0.397c1.154,3.821,3.062,7.291,5.668,10.313l0.271,0.314l-4.951,6.178c-0.346,0.431-0.502,0.97-0.441,1.518
					c0.061,0.549,0.33,1.04,0.761,1.385l4.295,3.444c0.431,0.344,0.969,0.504,1.518,0.44c0.549-0.061,1.04-0.33,1.385-0.761
					L371.081,296.794z M384.861,287.262c-3.377,0-6.775-1.104-9.609-3.374c-3.207-2.571-5.222-6.237-5.671-10.322
					c-0.45-4.086,0.718-8.103,3.288-11.31c2.571-3.207,6.237-5.222,10.322-5.672c4.092-0.454,8.103,0.719,11.31,3.288
					c6.621,5.308,7.689,15.013,2.384,21.633C393.849,285.291,389.374,287.262,384.861,287.262z M384.904,257.489
					c-0.531,0-1.066,0.029-1.603,0.089c-3.82,0.421-7.248,2.304-9.651,5.303c-4.963,6.191-3.964,15.265,2.227,20.226
					c6.19,4.963,15.265,3.962,20.228-2.227c4.961-6.19,3.962-15.265-2.229-20.228C391.298,258.587,388.161,257.489,384.904,257.489z
					"/>
			</g>
		</g>
		<g opacity="0.38">
			<path fill="#FFFFFF" d="M453.594,334.686h-56.622c-0.978,0-1.773-0.947-1.773-2.111v-20.836c0-1.165,0.796-2.112,1.773-2.112
				h56.622c0.978,0,1.773,0.947,1.773,2.112v20.836C455.367,333.738,454.571,334.686,453.594,334.686z M396.972,310.626
				c-0.419,0-0.773,0.51-0.773,1.112v20.836c0,0.603,0.354,1.111,0.773,1.111h56.622c0.419,0,0.773-0.509,0.773-1.111v-20.836
				c0-0.603-0.354-1.112-0.773-1.112H396.972z"/>
			<g>
				<rect x="406.854" y="317.684" fill="#FFFFFF" width="38.329" height="1"/>
				<path fill="#FFFFFF" d="M445.184,319.184h-38.329c-0.552,0-1-0.448-1-1s0.448-1,1-1h38.329c0.552,0,1,0.448,1,1
					S445.735,319.184,445.184,319.184z M445.184,318.184v0.5V318.184L445.184,318.184z"/>
			</g>
			<g>
				<rect x="406.854" y="322.23" fill="#FFFFFF" width="17.127" height="1"/>
				<path fill="#FFFFFF" d="M423.981,323.73h-17.127c-0.552,0-1-0.448-1-1s0.448-1,1-1h17.127c0.552,0,1,0.448,1,1
					S424.533,323.73,423.981,323.73z M423.981,322.73v0.5V322.73L423.981,322.73z"/>
			</g>
			<g>
				<rect x="428.058" y="322.23" fill="#FFFFFF" width="17.126" height="1"/>
				<path fill="#FFFFFF" d="M445.184,323.73h-17.126c-0.552,0-1-0.448-1-1s0.448-1,1-1h17.126c0.552,0,1,0.448,1,1
					S445.735,323.73,445.184,323.73z M445.184,322.73v0.5V322.73L445.184,322.73z"/>
			</g>
			<g>
				<rect x="406.854" y="326.988" fill="#FFFFFF" width="38.329" height="1"/>
				<path fill="#FFFFFF" d="M445.184,328.489h-38.329c-0.552,0-1-0.448-1-1s0.448-1,1-1h38.329c0.552,0,1,0.448,1,1
					S445.735,328.489,445.184,328.489z M445.184,327.489v0.5V327.489L445.184,327.489z"/>
			</g>
		</g>
		<g opacity="0.55">
			<path fill="#FFFFFF" d="M295.937,427.307c-0.786,0-1.545-0.266-2.168-0.766c-0.726-0.581-1.181-1.41-1.282-2.334l-0.704-6.393
				c-3.48-0.356-6.818-1.328-9.945-2.894l-4.022,5.02c-1.201,1.497-3.396,1.739-4.892,0.539l-4.153-3.329
				c-0.725-0.581-1.18-1.41-1.281-2.334c-0.103-0.924,0.162-1.832,0.743-2.557l4.023-5.02c-2.209-2.712-3.883-5.759-4.988-9.076
				l-6.393,0.704c-1.907,0.2-3.63-1.172-3.84-3.078l-0.583-5.29c-0.209-1.906,1.172-3.629,3.078-3.84l6.393-0.703
				c0.356-3.479,1.328-6.816,2.894-9.945l-5.02-4.023c-1.496-1.2-1.738-3.395-0.538-4.891l3.328-4.152
				c0.581-0.726,1.41-1.181,2.334-1.282c0.925-0.102,1.832,0.162,2.557,0.743l5.021,4.022c2.712-2.208,5.759-3.883,9.076-4.988
				l-0.704-6.393c-0.102-0.923,0.162-1.831,0.744-2.557c0.581-0.726,1.41-1.181,2.334-1.282l5.29-0.583
				c0.925-0.098,1.831,0.163,2.557,0.744s1.181,1.41,1.282,2.334l0.704,6.393c3.479,0.356,6.817,1.328,9.945,2.894l4.022-5.02
				c1.199-1.497,3.394-1.74,4.892-0.539l4.153,3.329c0.725,0.581,1.18,1.41,1.281,2.334c0.103,0.924-0.162,1.832-0.743,2.557
				l-4.023,5.02c2.209,2.712,3.883,5.759,4.988,9.076l6.393-0.703c1.902-0.208,3.629,1.17,3.84,3.076l0.583,5.291
				c0.209,1.906-1.172,3.629-3.078,3.84l-6.393,0.704c-0.356,3.479-1.328,6.816-2.894,9.944l5.02,4.023h-0.001
				c0.726,0.581,1.181,1.41,1.282,2.334c0.103,0.924-0.162,1.832-0.743,2.557l-3.328,4.152c-0.581,0.726-1.41,1.182-2.334,1.283
				c-0.923,0.106-1.831-0.162-2.558-0.744l-5.02-4.022c-2.712,2.208-5.759,3.883-9.076,4.988l0.704,6.393
				c0.211,1.906-1.17,3.629-3.078,3.84l-5.29,0.582C296.195,427.3,296.065,427.307,295.937,427.307z M281.31,412.382l0.732,0.394
				c3.335,1.789,6.941,2.838,10.719,3.118l0.829,0.062l0.885,8.033c0.043,0.393,0.236,0.745,0.545,0.993
				c0.308,0.246,0.696,0.358,1.086,0.315l5.291-0.582c0.393-0.043,0.745-0.237,0.993-0.546c0.247-0.308,0.359-0.693,0.315-1.087
				l-0.885-8.033l0.796-0.24c3.623-1.095,6.915-2.903,9.782-5.377l0.63-0.542l6.308,5.055c0.309,0.247,0.69,0.359,1.088,0.317
				c0.393-0.044,0.745-0.237,0.992-0.546l3.328-4.152c0.247-0.309,0.359-0.695,0.316-1.088c-0.044-0.393-0.237-0.745-0.545-0.992
				h-0.001l-6.307-5.057l0.394-0.732c1.789-3.337,2.838-6.943,3.118-10.718l0.062-0.829l8.033-0.885
				c0.811-0.09,1.397-0.822,1.309-1.633l-0.583-5.29c-0.089-0.812-0.826-1.393-1.633-1.308l-8.033,0.884l-0.24-0.796
				c-1.095-3.624-2.903-6.915-5.376-9.782l-0.544-0.63l5.057-6.308c0.247-0.308,0.359-0.694,0.316-1.087
				c-0.044-0.393-0.237-0.745-0.545-0.992l-4.153-3.329c-0.634-0.509-1.569-0.408-2.08,0.229l-5.055,6.308l-0.733-0.394
				c-3.337-1.789-6.943-2.838-10.719-3.118l-0.829-0.062l-0.885-8.033c-0.043-0.393-0.236-0.745-0.545-0.992
				c-0.309-0.248-0.695-0.357-1.087-0.316l-5.29,0.583c-0.393,0.043-0.745,0.236-0.993,0.545c-0.247,0.309-0.359,0.694-0.315,1.086
				l0.885,8.034l-0.796,0.24c-3.623,1.095-6.915,2.903-9.782,5.377l-0.63,0.542l-6.308-5.055c-0.31-0.248-0.69-0.358-1.088-0.316
				c-0.393,0.044-0.745,0.237-0.992,0.545l-3.328,4.152c-0.247,0.309-0.359,0.695-0.316,1.088c0.044,0.393,0.237,0.745,0.545,0.992
				l6.308,5.057l-0.394,0.732c-1.789,3.337-2.838,6.943-3.118,10.719l-0.062,0.829l-8.033,0.884
				c-0.811,0.09-1.397,0.822-1.309,1.633l0.583,5.29c0.089,0.811,0.82,1.393,1.633,1.309l8.033-0.885l0.24,0.796
				c1.095,3.624,2.903,6.915,5.376,9.782l0.544,0.63l-5.057,6.308c-0.247,0.308-0.359,0.694-0.316,1.087
				c0.044,0.393,0.237,0.745,0.545,0.992l4.153,3.329c0.633,0.508,1.568,0.407,2.08-0.229L281.31,412.382z M294.766,404.343
				c-3.378,0-6.777-1.104-9.611-3.376c-3.209-2.571-5.224-6.238-5.674-10.326c-0.45-4.087,0.719-8.104,3.29-11.313
				c2.571-3.209,6.238-5.224,10.325-5.673c4.093-0.453,8.105,0.719,11.313,3.29s5.223,6.238,5.673,10.325s-0.719,8.104-3.29,11.313
				C303.756,402.371,299.28,404.343,294.766,404.343z M294.807,375.561c-0.495,0-0.992,0.027-1.491,0.082
				c-3.557,0.392-6.747,2.145-8.984,4.936c-2.237,2.792-3.254,6.288-2.862,9.844c0.392,3.557,2.145,6.747,4.936,8.984l0,0
				c5.765,4.618,14.208,3.688,18.827-2.073c2.237-2.792,3.254-6.287,2.862-9.843c-0.392-3.557-2.145-6.747-4.936-8.984
				C300.759,376.582,297.838,375.561,294.807,375.561z"/>
		</g>
	</g>
	<g opacity="0.61">
		<g>
			<path opacity="0.74" fill="#6D6CD4" d="M166.307,186.615l1.85,152.256c0.023,1.897-1.496,3.453-3.393,3.477l-91.479,1.111
				c-1.896,0.022-3.453-1.496-3.476-3.393l-1.85-152.257c-0.023-1.896,1.496-3.453,3.393-3.476l91.479-1.111
				C164.728,183.199,166.283,184.718,166.307,186.615z"/>
			<g>
				<path fill="#3E479B" d="M166.636,186.554l0.11,9.046l-98.347,1.195l-0.112-9.215c-0.022-1.815,1.432-3.305,3.247-3.327
					l91.604-1.113C165.046,183.117,166.613,184.646,166.636,186.554z"/>
			</g>
		</g>
		<path fill="#FFFFFF" d="M75.063,192.293c-1.116,0.008-2.031-0.893-2.04-2.009c-0.009-1.117,0.893-2.032,2.009-2.04
			c1.116-0.009,2.031,0.893,2.04,2.009C77.082,191.37,76.18,192.285,75.063,192.293z M75.039,189.053
			c-0.67,0.005-1.21,0.554-1.206,1.224s0.554,1.211,1.224,1.206c0.67-0.005,1.21-0.554,1.206-1.224
			C76.258,189.589,75.709,189.048,75.039,189.053z"/>
		<path fill="#FFFFFF" d="M81.827,192.242c-1.116,0.008-2.032-0.893-2.04-2.009s0.893-2.032,2.009-2.04s2.032,0.893,2.04,2.009
			S82.943,192.233,81.827,192.242z M81.802,189.002c-0.67,0.005-1.211,0.555-1.206,1.224c0.005,0.67,0.554,1.211,1.224,1.206
			c0.67-0.005,1.211-0.554,1.206-1.224C83.021,189.538,82.472,188.997,81.802,189.002z"/>
		<path fill="#FFFFFF" d="M88.403,192.192c-1.116,0.008-2.032-0.893-2.04-2.009s0.893-2.032,2.009-2.04
			c1.117-0.008,2.032,0.893,2.04,2.009C90.421,191.269,89.519,192.184,88.403,192.192z M88.378,188.953
			c-0.67,0.005-1.211,0.554-1.206,1.224c0.005,0.67,0.554,1.211,1.224,1.206c0.669-0.005,1.21-0.554,1.206-1.224
			C89.597,189.488,89.048,188.947,88.378,188.953z"/>
		<path fill="#FFFFFF" d="M122.275,210.847l-45.448,0.344c-0.447,0.003-0.813-0.356-0.816-0.804s0.356-0.813,0.804-0.816
			l45.448-0.344c0.447-0.003,0.813,0.356,0.816,0.804S122.722,210.843,122.275,210.847z"/>
		<path fill="#3E479B" d="M137.424,210.732l-9.433,0.071c-0.447,0.003-0.813-0.356-0.816-0.804
			c-0.003-0.448,0.356-0.813,0.804-0.816l9.433-0.072c0.447-0.003,0.813,0.356,0.816,0.804
			C138.231,210.364,137.872,210.729,137.424,210.732z"/>
		<path fill="#FFFFFF" d="M122.561,248.578l-45.448,0.344c-0.447,0.003-0.813-0.356-0.816-0.804s0.356-0.813,0.804-0.816
			l45.448-0.344c0.447-0.003,0.813,0.356,0.816,0.804C123.368,248.209,123.008,248.575,122.561,248.578z"/>
		<path fill="#599AF2" d="M137.71,248.463l-9.433,0.071c-0.447,0.003-0.813-0.356-0.816-0.804s0.356-0.813,0.804-0.816l9.433-0.072
			c0.447-0.003,0.813,0.356,0.816,0.804C138.517,248.095,138.157,248.46,137.71,248.463z"/>
		<path fill="#599AF2" d="M122.411,228.854l-45.448,0.344c-0.447,0.003-0.813-0.356-0.816-0.804s0.356-0.813,0.804-0.816
			l45.448-0.344c0.447-0.003,0.813,0.356,0.816,0.804S122.858,228.851,122.411,228.854z"/>
		<path fill="#FFFFFF" d="M137.561,228.74l-9.433,0.071c-0.447,0.003-0.813-0.356-0.816-0.804c-0.003-0.448,0.356-0.813,0.804-0.816
			l9.433-0.072c0.447-0.003,0.813,0.356,0.816,0.804C138.368,228.372,138.008,228.737,137.561,228.74z"/>
		<path fill="#3E479B" d="M153.091,228.623l-9.433,0.071c-0.447,0.003-0.813-0.356-0.816-0.804s0.356-0.813,0.804-0.816l9.433-0.071
			c0.447-0.003,0.813,0.356,0.816,0.804C153.898,228.254,153.538,228.619,153.091,228.623z"/>
		<path fill="#3E479B" d="M107.192,219.823l-30.299,0.229c-0.447,0.003-0.813-0.356-0.816-0.804
			c-0.003-0.447,0.356-0.813,0.804-0.816l30.299-0.229c0.447-0.003,0.813,0.356,0.816,0.804
			C108,219.454,107.64,219.819,107.192,219.823z"/>
		<path fill="#F7A9B4" d="M126.058,219.68l-13.292,0.101c-0.447,0.003-0.813-0.356-0.816-0.804
			c-0.003-0.447,0.356-0.813,0.804-0.816l13.292-0.101c0.447-0.003,0.813,0.356,0.816,0.804
			C126.865,219.312,126.505,219.676,126.058,219.68z"/>
		<path fill="#3E479B" d="M126.202,238.656l-30.299,0.229c-0.447,0.003-0.813-0.356-0.816-0.804
			c-0.003-0.448,0.356-0.813,0.804-0.816l30.299-0.229c0.448-0.003,0.813,0.356,0.816,0.804S126.649,238.652,126.202,238.656z"/>
		<path fill="#F7A9B4" d="M90.329,238.927l-13.292,0.101c-0.447,0.003-0.813-0.356-0.816-0.804s0.356-0.813,0.804-0.816
			l13.292-0.101c0.447-0.003,0.813,0.356,0.816,0.804S90.776,238.924,90.329,238.927z"/>
		<path fill="#F7A9B4" d="M122.657,261.298l-45.448,0.344c-0.447,0.004-0.813-0.355-0.816-0.804
			c-0.003-0.447,0.356-0.813,0.804-0.815l45.448-0.345c0.447-0.003,0.813,0.356,0.816,0.804
			C123.464,260.93,123.104,261.295,122.657,261.298z"/>
		<path fill="#3E479B" d="M137.806,261.184l-9.433,0.071c-0.447,0.003-0.813-0.356-0.816-0.804
			c-0.003-0.448,0.356-0.813,0.804-0.816l9.433-0.071c0.447-0.003,0.813,0.356,0.816,0.804S138.253,261.18,137.806,261.184z"/>
		<path fill="#FFFFFF" d="M122.942,299.028l-45.448,0.344c-0.447,0.003-0.813-0.356-0.816-0.804s0.356-0.813,0.804-0.816
			l45.448-0.344c0.447-0.003,0.813,0.356,0.816,0.804C123.75,298.66,123.39,299.024,122.942,299.028z"/>
		<path fill="#599AF2" d="M138.092,298.913l-9.433,0.072c-0.447,0.003-0.813-0.356-0.816-0.805
			c-0.003-0.447,0.356-0.813,0.804-0.815l9.433-0.071c0.447-0.004,0.813,0.355,0.816,0.804
			C138.899,298.545,138.539,298.91,138.092,298.913z"/>
		<path fill="#599AF2" d="M122.793,279.306l-45.448,0.344c-0.447,0.004-0.813-0.355-0.816-0.804
			c-0.003-0.447,0.356-0.813,0.804-0.815l45.448-0.345c0.447-0.003,0.813,0.356,0.816,0.804
			C123.6,278.938,123.24,279.303,122.793,279.306z"/>
		<path fill="#FFFFFF" d="M137.942,279.191l-9.433,0.071c-0.447,0.003-0.813-0.356-0.816-0.804
			c-0.003-0.448,0.356-0.813,0.804-0.816l9.433-0.071c0.447-0.003,0.813,0.356,0.816,0.804S138.39,279.188,137.942,279.191z"/>
		<path fill="#3E479B" d="M153.473,279.073l-9.433,0.071c-0.447,0.004-0.813-0.355-0.816-0.804
			c-0.003-0.447,0.356-0.813,0.804-0.815l9.433-0.071c0.447-0.004,0.813,0.355,0.816,0.804
			C154.28,278.705,153.92,279.07,153.473,279.073z"/>
		<path fill="#3E479B" d="M107.574,270.272l-30.299,0.229c-0.447,0.004-0.813-0.355-0.816-0.804
			c-0.003-0.447,0.356-0.813,0.804-0.815l30.299-0.229c0.447-0.004,0.813,0.355,0.816,0.804
			C108.381,269.904,108.021,270.27,107.574,270.272z"/>
		<path fill="#F7A9B4" d="M126.439,270.13l-13.292,0.101c-0.447,0.004-0.813-0.355-0.816-0.804
			c-0.003-0.447,0.356-0.813,0.804-0.815l13.292-0.101c0.447-0.004,0.813,0.355,0.816,0.804
			C127.247,269.762,126.887,270.127,126.439,270.13z"/>
		<path fill="#3E479B" d="M126.583,289.105l-30.299,0.229c-0.447,0.004-0.813-0.355-0.816-0.804
			c-0.003-0.447,0.356-0.813,0.804-0.815l30.299-0.229c0.447-0.004,0.813,0.355,0.816,0.804
			C127.391,288.737,127.031,289.103,126.583,289.105z"/>
		<path fill="#F7A9B4" d="M90.71,289.378l-13.292,0.101c-0.447,0.003-0.813-0.356-0.816-0.805c-0.003-0.447,0.356-0.813,0.804-0.815
			l13.292-0.101c0.447-0.004,0.813,0.356,0.816,0.804S91.158,289.374,90.71,289.378z"/>
		<path fill="#F7A9B4" d="M123.03,310.695l-45.448,0.344c-0.447,0.004-0.813-0.355-0.816-0.804
			c-0.003-0.447,0.357-0.813,0.804-0.815l45.448-0.345c0.447-0.003,0.813,0.356,0.816,0.804
			C123.838,310.327,123.478,310.692,123.03,310.695z"/>
		<path fill="#3E479B" d="M138.18,310.581l-9.433,0.071c-0.447,0.003-0.813-0.356-0.816-0.804c-0.003-0.448,0.356-0.813,0.804-0.816
			l9.433-0.071c0.447-0.003,0.813,0.356,0.816,0.804S138.627,310.577,138.18,310.581z"/>
		<path fill="#FFFFFF" d="M138.36,334.404l-9.433,0.072c-0.447,0.003-0.813-0.356-0.816-0.804c-0.003-0.448,0.356-0.813,0.804-0.816
			l9.433-0.071c0.447-0.004,0.813,0.355,0.816,0.804C139.167,334.036,138.808,334.401,138.36,334.404z"/>
		<path fill="#3E479B" d="M153.891,334.287l-9.433,0.071c-0.447,0.004-0.813-0.355-0.816-0.804
			c-0.003-0.447,0.356-0.813,0.804-0.815l9.433-0.072c0.447-0.003,0.813,0.356,0.816,0.804
			C154.698,333.919,154.338,334.284,153.891,334.287z"/>
		<path fill="#3E479B" d="M107.948,319.671L77.649,319.9c-0.447,0.004-0.813-0.356-0.816-0.804s0.356-0.813,0.804-0.815
			l30.298-0.229c0.448-0.004,0.813,0.355,0.816,0.804C108.755,319.303,108.396,319.668,107.948,319.671z"/>
		<path fill="#F7A9B4" d="M126.813,319.528l-13.292,0.101c-0.447,0.004-0.813-0.356-0.816-0.804s0.356-0.813,0.804-0.816
			l13.292-0.101c0.447-0.003,0.813,0.356,0.816,0.805C127.621,319.16,127.261,319.525,126.813,319.528z"/>
	</g>
	<g>
		<g>
			<g>
				<g>
					<g>
						<g>
							<polygon fill="none" points="152.361,130.275 153.389,133.782 153.387,129.107 							"/>
							<g>
								<polygon fill="none" points="153.488,359.579 153.486,354.904 152.462,358.412 								"/>
								<path fill="#4C65BA" d="M153.378,108.976l0.009,20.131l0.002,4.675l0.024,55.884l0.048,109.353l0.024,55.885l0.002,4.675
									l0.006,13.598c0.002,6.143,3.877,11.364,9.31,13.398c1.565,0.587,3.252,0.922,5.022,0.921l10.21-0.004l112.429-0.05
									c3.005-0.001,5.791-0.932,8.094-2.514c3.76-2.584,6.228-6.911,6.226-11.818l-0.116-264.201
									c-0.002-4.403-1.994-8.337-5.121-10.964c-2.492-2.093-5.702-3.357-9.211-3.355l-122.639,0.054
									C159.785,94.647,153.375,101.064,153.378,108.976z"/>
								<path fill="#3E479B" d="M154.427,113.981l0.009,19.476l0.002,4.523l0.023,54.066l0.047,105.795l0.024,54.066l0.002,4.523
									l0.006,13.155c0.002,5.942,3.824,10.994,9.18,12.963c1.543,0.566,3.208,0.892,4.953,0.891l10.068-0.005l110.872-0.049
									c2.964-0.001,5.711-0.901,7.982-2.432c3.708-2.5,6.142-6.687,6.14-11.434l-0.112-255.606
									c-0.002-4.26-1.967-8.066-5.051-10.607c-2.457-2.024-5.623-3.248-9.083-3.246l-120.94,0.053
									C160.746,100.119,154.424,106.327,154.427,113.981z"/>
							</g>
						</g>
						<g>
							<path fill="#FFFFFF" d="M296.771,134.848l0.094,212.33c0.001,1.897-1.536,3.436-3.433,3.437l-128.607,0.057
								c-1.896,0.001-3.435-1.536-3.436-3.433l-0.094-212.331c0-1.896,1.536-3.435,3.433-3.436l128.606-0.057
								C295.232,131.415,296.771,132.952,296.771,134.848z"/>
							<g>
								<path fill="#599AF2" d="M296.771,134.76l0.006,13.766l-135.475,0.06l-0.006-13.935c0-1.816,1.47-3.288,3.286-3.289
									l128.731-0.057C295.223,131.305,296.771,132.851,296.771,134.76z"/>
								<g>
									<path fill="#FFFFFF" d="M280.048,137.994c-0.276,0-0.5-0.224-0.5-0.5c0-0.276,0.224-0.5,0.5-0.5l10.162-0.004l0,0
										c0.276,0,0.5,0.224,0.5,0.5c0,0.276-0.224,0.5-0.5,0.5L280.048,137.994L280.048,137.994z"/>
									<path fill="#FFFFFF" d="M280.049,140.59c-0.276,0-0.5-0.224-0.5-0.5c0-0.276,0.224-0.5,0.5-0.5l10.162-0.004l0,0
										c0.276,0,0.5,0.224,0.5,0.5c0,0.276-0.224,0.5-0.5,0.5L280.049,140.59L280.049,140.59z"/>
									<path fill="#FFFFFF" d="M280.05,143.186c-0.276,0-0.5-0.224-0.5-0.5c0-0.276,0.224-0.5,0.5-0.5l10.162-0.004l0,0
										c0.276,0,0.5,0.224,0.5,0.5c0,0.276-0.224,0.5-0.5,0.5L280.05,143.186L280.05,143.186z"/>
								</g>
								<path fill="#FFFFFF" d="M173.41,144.841c-0.128,0-0.256-0.049-0.354-0.146l-3.692-3.689c-0.318-0.318-0.318-0.836,0-1.154
									l3.547-3.55c0.195-0.195,0.512-0.195,0.707,0c0.195,0.195,0.195,0.512,0,0.707l-3.417,3.42l3.563,3.559
									c0.195,0.195,0.195,0.512,0,0.707C173.666,144.792,173.538,144.841,173.41,144.841z"/>
							</g>
						</g>
						<path fill="#FFFFFF" d="M229.153,118.708c-2.022,0-3.667-1.645-3.667-3.667s1.644-3.668,3.666-3.669c0,0,0.001,0,0.001,0
							c2.022,0,3.667,1.644,3.668,3.666c0,2.022-1.644,3.668-3.667,3.669C229.154,118.708,229.154,118.708,229.153,118.708z
							 M229.153,112.927c0,0,0,0-0.001,0c-1.165,0.001-2.113,0.949-2.112,2.115c0.001,1.165,0.949,2.112,2.114,2.112
							c0.001,0,0.001,0,0.001,0c0.564,0,1.095-0.221,1.494-0.62c0.399-0.4,0.618-0.93,0.618-1.496c0-0.564-0.221-1.095-0.62-1.494
							C230.248,113.146,229.717,112.927,229.153,112.927z"/>
						<path fill="#FFFFFF" d="M225.665,377.022c-1.297,0-2.354-1.056-2.354-2.353l-0.003-6.95c0-1.297,1.054-2.354,2.352-2.354
							l6.952-0.003c1.298,0,2.354,1.056,2.354,2.353l0.003,6.951c0,1.297-1.054,2.353-2.352,2.354L225.665,377.022z
							 M232.611,366.362l-6.951,0.003c-0.746,0.001-1.353,0.608-1.352,1.354l0.003,6.95c0,0.746,0.608,1.353,1.354,1.353
							l6.951-0.003c0.746-0.001,1.353-0.607,1.352-1.354l-0.003-6.951C233.965,366.969,233.357,366.362,232.611,366.362z"/>
						<g>
							<path fill="#FFFFFF" d="M183.795,367.497c-0.276,0-0.5-0.224-0.5-0.5s0.224-0.5,0.5-0.5l6.691-0.003l0,0
								c0.276,0,0.5,0.224,0.5,0.5s-0.224,0.5-0.5,0.5L183.795,367.497L183.795,367.497z"/>
							<path fill="#FFFFFF" d="M183.796,371.112c-0.276,0-0.5-0.224-0.5-0.5s0.224-0.5,0.5-0.5l6.691-0.003l0,0
								c0.276,0,0.5,0.224,0.5,0.5s-0.224,0.5-0.5,0.5L183.796,371.112L183.796,371.112z"/>
							<path fill="#FFFFFF" d="M183.798,374.771c-0.276,0-0.5-0.224-0.5-0.5s0.224-0.5,0.5-0.5l6.691-0.003l0,0
								c0.276,0,0.5,0.224,0.5,0.5s-0.224,0.5-0.5,0.5L183.798,374.771L183.798,374.771z"/>
						</g>
						<path fill="#FFFFFF" d="M276.18,377c-0.128,0-0.256-0.049-0.354-0.146l-5.262-5.258l5.123-5.127
							c0.195-0.195,0.512-0.195,0.707,0s0.195,0.512,0,0.707l-4.416,4.42l4.555,4.551c0.195,0.195,0.195,0.512,0,0.707
							C276.436,376.951,276.308,377,276.18,377z"/>
					</g>
				</g>
			</g>
		</g>
		<g>
			<rect x="161.519" y="148.77" opacity="0.36" fill="#599AF2" width="135.269" height="44.302"/>
			<path opacity="0.43" fill="#FFFFFF" d="M222.567,168.697L174,168.718c-0.78,0-1.412-0.631-1.413-1.411l-0.003-8.157
				c0-0.78,0.631-1.412,1.411-1.412l48.567-0.021c0.78,0,1.412,0.631,1.412,1.411l0.004,8.157
				C223.979,168.064,223.347,168.697,222.567,168.697z"/>
			<path opacity="0.43" fill="#FFFFFF" d="M249.256,180.325l-75.25,0.033c-0.779,0-1.412-0.631-1.412-1.411l-0.001-2.667
				c0-0.78,0.631-1.412,1.411-1.413l75.25-0.033c0.78,0,1.412,0.631,1.413,1.411l0.001,2.667
				C250.667,179.692,250.036,180.325,249.256,180.325z"/>
			<path opacity="0.43" fill="#FFFFFF" d="M280.128,179.42c-2.773,0-5.381-1.079-7.343-3.04c-1.963-1.961-3.045-4.57-3.046-7.345
				c-0.002-2.775,1.078-5.384,3.039-7.347c1.961-1.963,4.569-3.044,7.345-3.046c0.001,0,0.003,0,0.005,0
				c2.773,0,5.38,1.079,7.342,3.04c1.963,1.961,3.045,4.569,3.046,7.344l0,0c0.002,2.775-1.078,5.384-3.039,7.348
				c-1.961,1.963-4.569,3.044-7.345,3.046C280.131,179.42,280.13,179.42,280.128,179.42z M280.128,160.643c-0.002,0-0.003,0-0.005,0
				c-2.24,0.001-4.346,0.875-5.93,2.459c-1.584,1.585-2.455,3.692-2.454,5.933s0.874,4.347,2.459,5.931
				c1.585,1.583,3.69,2.455,5.93,2.455c0.001,0,0.002,0,0.004,0c2.24-0.001,4.346-0.875,5.93-2.459
				c1.584-1.585,2.455-3.692,2.454-5.933l0,0c-0.001-2.241-0.874-4.347-2.459-5.931
				C284.473,161.515,282.367,160.643,280.128,160.643z"/>
		</g>
		<g>
			<g>
				<g>
					<g>
						<path fill="#4C65BA" d="M200.434,240.628l-22.377,0.01c-2.516,0.001-4.556-2.037-4.557-4.553l-0.01-22.377
							c-0.001-2.516,2.038-4.556,4.553-4.557l22.378-0.01c2.516-0.001,4.556,2.037,4.557,4.553l0.01,22.378
							C204.988,238.586,202.95,240.627,200.434,240.628z"/>
						<g opacity="0.36">
							<circle fill="#599AF2" cx="189.239" cy="225.044" r="6.795"/>
						</g>
					</g>
					<g opacity="0.26">
						<path fill="#3E479B" d="M229.311,219.685l-17.708,0.008c-0.628,0-1.138-0.509-1.139-1.138l-0.001-3.371
							c0-0.629,0.509-1.139,1.138-1.139l17.708-0.008c0.629,0,1.139,0.509,1.139,1.138l0.002,3.371
							C230.448,219.174,229.939,219.685,229.311,219.685z"/>
						<path fill="#3E479B" d="M210.468,228.372c-0.552,0-1-0.447-1-1c0-0.552,0.447-1,1-1l34.103-0.015h0c0.552,0,1,0.447,1,1
							c0,0.552-0.447,1-1,1L210.468,228.372L210.468,228.372z"/>
						<path fill="#3E479B" d="M210.471,235.508c-0.552,0-1-0.447-1-1s0.447-1,1-1l55.608-0.024l0,0c0.552,0,1,0.447,1,1
							s-0.447,1-1,1L210.471,235.508L210.471,235.508z"/>
						<path fill="#3E479B" d="M252.174,228.354c-0.552,0-1-0.447-1-1s0.447-1,1-1l34.103-0.015l0,0c0.552,0,1,0.447,1,1
							s-0.447,1-1,1L252.174,228.354L252.174,228.354z"/>
					</g>
				</g>
				<g>
					<g>
						<g>
							<path fill="#599AF2" d="M200.475,332.234l-22.378,0.01c-2.516,0.001-4.556-2.037-4.557-4.553l-0.01-22.378
								c-0.001-2.516,2.038-4.556,4.553-4.557l22.377-0.01c2.516-0.001,4.556,2.037,4.557,4.553l0.01,22.378
								C205.029,330.193,202.99,332.233,200.475,332.234z"/>
						</g>
						<g opacity="0.57">
							<circle fill="#3E479B" cx="189.279" cy="316.65" r="6.795"/>
						</g>
					</g>
					<g opacity="0.26">
						<path fill="#3E479B" d="M229.351,311.291l-17.708,0.008c-0.628,0-1.139-0.509-1.139-1.138l-0.001-3.371
							c0-0.629,0.509-1.139,1.138-1.139l17.708-0.008c0.628,0,1.139,0.509,1.139,1.138l0.001,3.371
							C230.489,310.781,229.979,311.291,229.351,311.291z"/>
						<path fill="#3E479B" d="M210.508,319.979c-0.552,0-1-0.447-1-1c0-0.552,0.447-1,1-1l34.103-0.015h0c0.552,0,1,0.447,1,1
							c0,0.552-0.447,1-1,1L210.508,319.979L210.508,319.979z"/>
						<path fill="#3E479B" d="M210.511,327.115c-0.552,0-1-0.447-1-1c0-0.552,0.447-1,1-1l55.608-0.024l0,0c0.552,0,1,0.447,1,1
							c0,0.552-0.447,1-1,1L210.511,327.115L210.511,327.115z"/>
						<path fill="#3E479B" d="M252.214,319.96c-0.552,0-1-0.447-1-1c0-0.552,0.447-1,1-1l34.104-0.015l0,0c0.552,0,1,0.447,1,1
							c0,0.552-0.447,1-1,1L252.214,319.96L252.214,319.96z"/>
					</g>
				</g>
				<g>
					<g>
						<path fill="#F7A9B4" d="M200.454,286.325l-22.377,0.01c-2.516,0.001-4.556-2.037-4.557-4.553l-0.01-22.378
							c-0.001-2.516,2.037-4.556,4.553-4.557l22.378-0.011c2.516-0.001,4.556,2.038,4.557,4.554l0.01,22.378
							C205.008,284.284,202.97,286.324,200.454,286.325z"/>
						<circle opacity="0.43" fill="#FFFFFF" cx="189.259" cy="270.741" r="6.795"/>
					</g>
					<g opacity="0.26">
						<path fill="#3E479B" d="M229.331,265.382l-17.708,0.008c-0.629,0-1.139-0.509-1.139-1.138l-0.001-3.371
							c0-0.629,0.509-1.139,1.138-1.139l17.708-0.008c0.628,0,1.138,0.509,1.139,1.138l0.001,3.371
							C230.468,264.872,229.959,265.382,229.331,265.382z"/>
						<path fill="#3E479B" d="M210.488,274.069c-0.552,0-1-0.447-1-1c0-0.552,0.447-1,1-1l15.773-0.007h0c0.552,0,1,0.447,1,1
							c0,0.552-0.447,1-1,1L210.488,274.069L210.488,274.069z"/>
						<path fill="#3E479B" d="M210.491,281.206c-0.552,0-1-0.447-1-1c0-0.552,0.447-1,1-1l32.365-0.015h0c0.552,0,1,0.447,1,1
							c0,0.552-0.447,1-1,1L210.491,281.206L210.491,281.206z"/>
						<path fill="#3E479B" d="M232.861,274.06c-0.552,0-1-0.447-1-1c0-0.552,0.447-1,1-1l31.497-0.014l0,0c0.552,0,1,0.447,1,1
							c0,0.552-0.447,1-1,1L232.861,274.06L232.861,274.06z"/>
						<path fill="#3E479B" d="M270.223,274.043c-0.552,0-1-0.447-1-1c0-0.552,0.447-1,1-1l15.774-0.007l0,0c0.552,0,1,0.447,1,1
							c0,0.552-0.447,1-1,1L270.223,274.043L270.223,274.043z"/>
					</g>
				</g>
			</g>
		</g>
	</g>
	<g>
		<g>
			<g>
				<path opacity="0.39" fill="#FFFFFF" d="M399.515,286.806l1.309,107.726c0.022,1.897-1.496,3.453-3.393,3.477l-63.956,0.776
					c-1.896,0.023-3.453-1.495-3.476-3.392l-1.31-107.726c-0.022-1.897,1.496-3.453,3.393-3.477l63.956-0.776
					C397.935,283.391,399.491,284.909,399.515,286.806z"/>
				<path opacity="0.39" fill="#F7A9B4" d="M399.515,286.806l1.309,107.726c0.022,1.897-1.496,3.453-3.393,3.477l-63.956,0.776
					c-1.896,0.023-3.453-1.495-3.476-3.392l-1.31-107.726c-0.022-1.897,1.496-3.453,3.393-3.477l63.956-0.776
					C397.935,283.391,399.491,284.909,399.515,286.806z"/>
				<g>
					<path fill="#F7A9B4" d="M399.752,286.769l0.067,5.548l-70.825,0.86l-0.069-5.717c-0.021-1.815,1.432-3.305,3.247-3.327
						l64.081-0.778C398.162,283.331,399.729,284.86,399.752,286.769z"/>
				</g>
			</g>
			<path fill="#FFFFFF" d="M333.794,289.935c-0.804,0.006-1.463-0.644-1.469-1.447c-0.006-0.805,0.643-1.463,1.447-1.47
				c0.804-0.006,1.463,0.644,1.469,1.447C335.247,289.27,334.598,289.928,333.794,289.935z M333.776,287.602
				c-0.482,0.003-0.872,0.398-0.868,0.881s0.399,0.872,0.882,0.868c0.482-0.003,0.871-0.398,0.868-0.881
				C334.654,287.987,334.259,287.598,333.776,287.602z"/>
			<path fill="#FFFFFF" d="M338.664,289.897c-0.804,0.006-1.463-0.643-1.469-1.447c-0.006-0.804,0.643-1.463,1.447-1.469
				c0.804-0.007,1.463,0.643,1.469,1.446C340.117,289.232,339.469,289.892,338.664,289.897z M338.646,287.564
				c-0.482,0.004-0.871,0.399-0.868,0.882c0.004,0.482,0.399,0.871,0.882,0.868c0.482-0.004,0.872-0.399,0.868-0.882
				S339.129,287.561,338.646,287.564z"/>
			<path fill="#FFFFFF" d="M343.4,289.861c-0.804,0.006-1.463-0.643-1.469-1.447c-0.007-0.804,0.643-1.463,1.446-1.469
				c0.805-0.006,1.463,0.643,1.47,1.447C344.854,289.196,344.204,289.855,343.4,289.861z M343.383,287.528
				c-0.482,0.004-0.872,0.399-0.868,0.882s0.398,0.872,0.881,0.868s0.872-0.399,0.868-0.882
				C344.261,287.914,343.865,287.525,343.383,287.528z"/>
			<path fill="#FFFFFF" d="M367.793,303.296l-32.729,0.248c-0.322,0.002-0.585-0.257-0.588-0.579
				c-0.002-0.322,0.257-0.585,0.579-0.588l32.729-0.248c0.322-0.002,0.585,0.257,0.588,0.579
				C368.374,303.03,368.115,303.293,367.793,303.296z"/>
			<path fill="#FFFFFF" d="M378.703,303.213l-6.793,0.052c-0.322,0.003-0.586-0.257-0.588-0.579
				c-0.003-0.322,0.257-0.585,0.579-0.587l6.793-0.052c0.322-0.003,0.585,0.256,0.588,0.579
				C379.284,302.948,379.025,303.211,378.703,303.213z"/>
			<path fill="#FFFFFF" d="M367.999,330.468l-32.729,0.248c-0.322,0.002-0.586-0.257-0.588-0.579s0.257-0.585,0.579-0.588
				l32.729-0.247c0.322-0.003,0.585,0.256,0.587,0.578C368.58,330.202,368.321,330.466,367.999,330.468z"/>
			<path fill="#FFFFFF" d="M378.908,330.385l-6.793,0.052c-0.321,0.003-0.585-0.256-0.587-0.579
				c-0.003-0.322,0.257-0.585,0.578-0.587l6.794-0.052c0.321-0.003,0.585,0.257,0.587,0.579
				C379.49,330.12,379.23,330.383,378.908,330.385z"/>
			<path fill="#FFFFFF" d="M367.892,316.264l-32.729,0.248c-0.322,0.003-0.586-0.256-0.588-0.579
				c-0.003-0.322,0.257-0.585,0.579-0.587l32.729-0.248c0.321-0.003,0.585,0.257,0.587,0.579
				C368.473,315.999,368.213,316.262,367.892,316.264z"/>
			<path fill="#FFFFFF" d="M378.801,316.182l-6.793,0.052c-0.322,0.002-0.585-0.257-0.588-0.579
				c-0.002-0.322,0.257-0.585,0.579-0.588l6.793-0.052c0.322-0.002,0.586,0.257,0.588,0.579
				C379.383,315.916,379.123,316.179,378.801,316.182z"/>
			<path fill="#FFFFFF" d="M389.985,316.097l-6.793,0.052c-0.322,0.002-0.585-0.257-0.588-0.579
				c-0.002-0.322,0.257-0.585,0.579-0.588l6.793-0.051c0.322-0.003,0.585,0.256,0.588,0.579
				C390.566,315.832,390.308,316.095,389.985,316.097z"/>
			<path fill="#FFFFFF" d="M356.932,309.76l-21.819,0.165c-0.322,0.003-0.586-0.257-0.588-0.579
				c-0.003-0.322,0.257-0.585,0.579-0.587l21.819-0.165c0.322-0.003,0.585,0.256,0.588,0.578
				C357.513,309.494,357.254,309.757,356.932,309.76z"/>
			<path fill="#FFFFFF" d="M370.518,309.657l-9.572,0.072c-0.322,0.002-0.585-0.257-0.588-0.579
				c-0.002-0.322,0.257-0.585,0.579-0.588l9.572-0.072c0.322-0.002,0.585,0.257,0.588,0.579
				C371.099,309.392,370.84,309.654,370.518,309.657z"/>
			<path fill="#FFFFFF" d="M370.621,323.322l-21.82,0.165c-0.321,0.003-0.585-0.256-0.587-0.579
				c-0.003-0.322,0.256-0.585,0.578-0.587l21.82-0.165c0.322-0.003,0.585,0.256,0.588,0.578
				C371.202,323.057,370.943,323.32,370.621,323.322z"/>
			<path fill="#FFFFFF" d="M344.787,323.518l-9.571,0.072c-0.322,0.003-0.586-0.256-0.588-0.578
				c-0.003-0.322,0.257-0.585,0.579-0.588l9.571-0.072c0.322-0.003,0.585,0.256,0.588,0.579
				C345.368,323.253,345.109,323.516,344.787,323.518z"/>
			<path fill="#FFFFFF" d="M368.068,339.628l-32.729,0.248c-0.322,0.002-0.586-0.257-0.588-0.579s0.257-0.585,0.579-0.588
				l32.729-0.247c0.322-0.003,0.585,0.256,0.587,0.578C368.649,339.363,368.391,339.626,368.068,339.628z"/>
			<path fill="#FFFFFF" d="M378.979,339.546l-6.794,0.051c-0.321,0.003-0.585-0.256-0.587-0.578
				c-0.003-0.323,0.257-0.586,0.578-0.588l6.793-0.052c0.322-0.002,0.586,0.257,0.588,0.579
				C379.56,339.28,379.3,339.543,378.979,339.546z"/>
			<path fill="#FFFFFF" d="M368.273,366.8l-32.729,0.247c-0.321,0.003-0.585-0.256-0.587-0.578
				c-0.003-0.322,0.256-0.586,0.578-0.588l32.729-0.248c0.322-0.002,0.586,0.257,0.588,0.579
				C368.855,366.534,368.596,366.797,368.273,366.8z"/>
			<path fill="#FFFFFF" d="M379.184,366.717l-6.793,0.052c-0.322,0.002-0.585-0.257-0.588-0.579
				c-0.002-0.322,0.257-0.585,0.579-0.588l6.793-0.051c0.322-0.003,0.585,0.256,0.588,0.578
				C379.765,366.451,379.506,366.715,379.184,366.717z"/>
			<path fill="#FFFFFF" d="M368.166,352.597l-32.729,0.247c-0.322,0.003-0.585-0.256-0.587-0.578
				c-0.003-0.322,0.256-0.586,0.578-0.588l32.729-0.248c0.322-0.002,0.585,0.257,0.588,0.579
				C368.747,352.331,368.488,352.594,368.166,352.597z"/>
			<path fill="#FFFFFF" d="M379.076,352.514l-6.793,0.052c-0.322,0.002-0.585-0.257-0.588-0.579
				c-0.002-0.322,0.257-0.585,0.579-0.588l6.793-0.051c0.322-0.003,0.585,0.256,0.588,0.578
				C379.657,352.248,379.398,352.512,379.076,352.514z"/>
			<path fill="#FFFFFF" d="M390.261,352.429l-6.793,0.052c-0.322,0.003-0.586-0.257-0.588-0.579
				c-0.003-0.322,0.257-0.585,0.579-0.587l6.793-0.052c0.321-0.003,0.585,0.257,0.587,0.579
				C390.842,352.164,390.582,352.427,390.261,352.429z"/>
			<path fill="#FFFFFF" d="M357.206,346.092l-21.819,0.165c-0.322,0.002-0.585-0.257-0.588-0.579
				c-0.002-0.322,0.257-0.585,0.579-0.588l21.819-0.165c0.322-0.002,0.586,0.257,0.588,0.579
				C357.788,345.826,357.528,346.089,357.206,346.092z"/>
			<path fill="#FFFFFF" d="M370.793,345.988l-9.572,0.072c-0.322,0.003-0.585-0.256-0.588-0.578
				c-0.002-0.322,0.257-0.585,0.579-0.588l9.571-0.072c0.322-0.003,0.586,0.256,0.588,0.578
				C371.374,345.724,371.114,345.986,370.793,345.988z"/>
			<path fill="#FFFFFF" d="M370.896,359.654l-21.819,0.165c-0.322,0.002-0.585-0.257-0.588-0.579
				c-0.002-0.322,0.257-0.585,0.579-0.588l21.819-0.165c0.322-0.002,0.586,0.257,0.588,0.579
				C371.478,359.389,371.218,359.651,370.896,359.654z"/>
			<path fill="#FFFFFF" d="M345.063,359.85l-9.572,0.072c-0.322,0.003-0.585-0.256-0.588-0.579
				c-0.002-0.322,0.257-0.585,0.579-0.587l9.572-0.072c0.321-0.003,0.585,0.256,0.587,0.578
				C345.644,359.584,345.384,359.847,345.063,359.85z"/>
			<path fill="#FFFFFF" d="M368.338,375.201l-32.73,0.248c-0.321,0.003-0.585-0.256-0.587-0.579
				c-0.003-0.322,0.257-0.585,0.578-0.587l32.729-0.248c0.322-0.003,0.586,0.257,0.588,0.579
				C368.919,374.937,368.659,375.199,368.338,375.201z"/>
			<path fill="#FFFFFF" d="M379.247,375.119l-6.793,0.052c-0.322,0.002-0.585-0.257-0.588-0.579
				c-0.002-0.322,0.257-0.585,0.579-0.588l6.793-0.052c0.322-0.002,0.585,0.257,0.588,0.579
				C379.828,374.854,379.569,375.116,379.247,375.119z"/>
			<path fill="#FFFFFF" d="M379.377,392.275l-6.793,0.052c-0.322,0.003-0.585-0.256-0.588-0.579
				c-0.002-0.322,0.257-0.585,0.579-0.587l6.793-0.052c0.322-0.002,0.585,0.257,0.588,0.579
				C379.958,392.011,379.699,392.273,379.377,392.275z"/>
			<path fill="#FFFFFF" d="M390.562,392.191l-6.793,0.051c-0.322,0.003-0.585-0.256-0.588-0.578
				c-0.002-0.322,0.257-0.585,0.579-0.588l6.793-0.052c0.322-0.002,0.585,0.257,0.588,0.579
				C391.143,391.926,390.884,392.188,390.562,392.191z"/>
			<path fill="#FFFFFF" d="M357.476,381.666l-21.819,0.165c-0.322,0.002-0.585-0.257-0.588-0.579
				c-0.002-0.322,0.257-0.585,0.579-0.588l21.819-0.165c0.322-0.002,0.585,0.257,0.588,0.579
				C358.057,381.4,357.798,381.663,357.476,381.666z"/>
			<path fill="#FFFFFF" d="M371.062,381.563l-9.572,0.072c-0.321,0.003-0.585-0.256-0.587-0.578
				c-0.003-0.322,0.257-0.586,0.578-0.588l9.572-0.072c0.322-0.003,0.585,0.256,0.588,0.578
				C371.643,381.298,371.384,381.561,371.062,381.563z"/>
		</g>
		<g>
			<g>
				<path opacity="0.22" fill="#3E479B" d="M419.449,122.52l1.316,128.842c0.02,1.896-1.503,3.45-3.399,3.469l-77.007,0.787
					c-1.896,0.02-3.449-1.503-3.469-3.399l-1.316-128.842c-0.02-1.896,1.503-3.45,3.399-3.469l77.007-0.787
					C417.877,119.101,419.431,120.623,419.449,122.52z"/>
				<path fill="#FFFFFF" d="M414.863,116.552l1.315,128.842c0.02,1.896-1.502,3.45-3.398,3.469l-77.007,0.787
					c-1.897,0.019-3.45-1.503-3.47-3.399l-1.315-128.842c-0.02-1.896,1.502-3.45,3.398-3.469l77.007-0.786
					C413.29,113.134,414.844,114.655,414.863,116.552z"/>
				<g>
					<path fill="#599AF2" d="M415.145,116.504l0.073,7.207l-83.875,0.856l-0.075-7.375c-0.019-1.815,1.438-3.302,3.253-3.32
						l77.132-0.788C413.562,113.064,415.125,114.596,415.145,116.504z"/>
					<g>
						<path fill="#FFFFFF" d="M404.793,117.482c-0.273,0-0.497-0.221-0.5-0.495c-0.003-0.276,0.219-0.502,0.495-0.505l6.291-0.064
							c0.243-0.038,0.502,0.218,0.505,0.495c0.003,0.276-0.219,0.502-0.495,0.505l-6.291,0.064
							C404.796,117.482,404.795,117.482,404.793,117.482z"/>
						<path fill="#FFFFFF" d="M404.81,119.089c-0.273,0-0.497-0.221-0.5-0.495c-0.003-0.276,0.219-0.502,0.495-0.505l6.291-0.064
							c0.227,0.007,0.502,0.219,0.505,0.495c0.003,0.276-0.219,0.502-0.495,0.505l-6.291,0.064
							C404.813,119.089,404.812,119.089,404.81,119.089z"/>
						<path fill="#FFFFFF" d="M404.826,120.696c-0.273,0-0.497-0.221-0.5-0.495c-0.003-0.276,0.219-0.502,0.495-0.505l6.291-0.064
							c0.002,0,0.003,0,0.005,0c0.273,0,0.497,0.221,0.5,0.495c0.003,0.276-0.219,0.502-0.495,0.505l-6.291,0.064
							C404.829,120.696,404.828,120.696,404.826,120.696z"/>
					</g>
					<path fill="#FFFFFF" d="M338.813,122.367c-0.126,0-0.253-0.047-0.35-0.143l-2.309-2.262c-0.273-0.268-0.278-0.709-0.012-0.983
						l2.176-2.221c0.195-0.196,0.512-0.201,0.707-0.007c0.197,0.193,0.201,0.51,0.008,0.707l-1.962,2.002l2.091,2.049
						c0.197,0.193,0.201,0.51,0.008,0.707C339.071,122.316,338.942,122.367,338.813,122.367z"/>
				</g>
				<path opacity="0.36" fill="#599AF2" d="M412.6,249.093l-77.267,0.435c-1.864,0.011-3.384-1.492-3.395-3.356l-0.151-26.776
					l84.018-0.473l0.151,26.775C415.966,247.563,414.464,249.083,412.6,249.093z"/>
				<path fill="#4C65BA" d="M390.242,142.846l-33.751,0.19c-0.617,0.003-1.121-0.494-1.124-1.111l-0.021-3.696
					c-0.003-0.617,0.494-1.12,1.112-1.124l33.751-0.19c0.617-0.003,1.121,0.494,1.124,1.111l0.021,3.696
					C391.357,142.339,390.86,142.842,390.242,142.846z"/>
				<g>
					<path opacity="0.32" fill="#599AF2" d="M401.006,167.002L346,167.312c-2.613,0.015-4.744-2.092-4.759-4.706l-0.006-1.161
						c-0.016-2.613,2.092-4.744,4.705-4.759l55.006-0.31c2.613-0.015,4.744,2.092,4.759,4.706l0.007,1.16
						C405.727,164.856,403.619,166.987,401.006,167.002z"/>
					<g>
						<circle opacity="0.43" fill="#FFFFFF" cx="346.796" cy="162.036" r="3.271"/>
						<g>
							<circle fill="#FFFFFF" cx="346.792" cy="161.101" r="1.178"/>
							<path fill="#FFFFFF" d="M348.556,164.139l-3.494,0.02l-0.003-0.43c-0.005-1.014,0.812-1.84,1.826-1.846l0,0
								c0.916-0.005,1.662,0.733,1.667,1.649L348.556,164.139z"/>
						</g>
					</g>
				</g>
				<g>
					<path opacity="0.32" fill="#599AF2" d="M401.104,184.313l-55.006,0.31c-2.613,0.015-4.744-2.092-4.759-4.706l-0.007-1.16
						c-0.015-2.614,2.093-4.745,4.706-4.759l55.006-0.31c2.613-0.015,4.744,2.092,4.759,4.706l0.007,1.16
						C405.824,182.167,403.717,184.298,401.104,184.313z"/>
					<g>
						<circle opacity="0.43" fill="#FFFFFF" cx="346.894" cy="179.346" r="3.271"/>
						<g>
							<path fill="#FFFFFF" d="M348.004,181.399l-2.196,0.012c-0.179,0.001-0.325-0.143-0.326-0.322l-0.011-1.953
								c-0.001-0.179,0.144-0.324,0.322-0.325l2.196-0.012c0.179-0.001,0.324,0.143,0.325,0.322l0.012,1.953
								C348.327,181.253,348.183,181.398,348.004,181.399z"/>
							<path fill="#FFFFFF" d="M345.748,179.045l-0.004-0.808c-0.002-0.213,0.08-0.415,0.23-0.567s0.351-0.237,0.564-0.238
								l0.742-0.004c0.002,0,0.003,0,0.005,0c0.19,0,0.37,0.074,0.506,0.208c0.136,0.135,0.211,0.315,0.212,0.507l0.006,0.888
								l-0.25,0.002l-0.006-0.889c0-0.125-0.05-0.243-0.139-0.331c-0.088-0.087-0.205-0.136-0.329-0.136c-0.001,0-0.002,0-0.003,0
								l-0.742,0.004c-0.147,0.001-0.285,0.059-0.389,0.164s-0.159,0.243-0.158,0.39l0.004,0.808L345.748,179.045z"/>
						</g>
					</g>
				</g>
				<path fill="#F7A9B4" d="M386.629,203.65l-23.728,0.134c-2.872,0.016-5.213-2.299-5.229-5.171l0,0
					c-0.017-2.872,2.299-5.213,5.171-5.229l23.728-0.134c2.872-0.016,5.214,2.299,5.23,5.171l0,0
					C391.816,201.293,389.501,203.634,386.629,203.65z"/>
			</g>
			<path fill="#FFFFFF" d="M350.895,230.438c-0.55,0-0.997-0.444-1-0.994c-0.003-0.553,0.442-1.003,0.994-1.006l45.918-0.259
				c0.002,0,0.004,0,0.006,0c0.55,0,0.997,0.444,1,0.994c0.003,0.553-0.442,1.003-0.994,1.006l-45.918,0.259
				C350.898,230.438,350.896,230.438,350.895,230.438z"/>
			<path fill="#FFFFFF" d="M360.241,237.343c-0.55,0-0.997-0.444-1-0.994c-0.003-0.553,0.442-1.003,0.994-1.006l27.303-0.154
				c0.002,0,0.004,0,0.006,0c0.55,0,0.997,0.444,1,0.994c0.003,0.553-0.442,1.003-0.994,1.006l-27.303,0.154
				C360.245,237.343,360.243,237.343,360.241,237.343z"/>
		</g>
		<g>
			<g>
				<path opacity="0.22" fill="#3E479B" d="M360.802,209.99l1.316,128.842c0.02,1.896-1.503,3.449-3.399,3.469l-77.007,0.786
					c-1.896,0.02-3.45-1.502-3.47-3.398l-1.315-128.842c-0.02-1.897,1.503-3.45,3.399-3.469l77.007-0.787
					C359.229,206.571,360.782,208.093,360.802,209.99z"/>
				<path fill="#FFFFFF" d="M356.216,204.022l1.315,128.842c0.02,1.896-1.502,3.45-3.398,3.47l-77.008,0.786
					c-1.896,0.02-3.449-1.503-3.469-3.399l-1.316-128.841c-0.02-1.897,1.503-3.45,3.399-3.469l77.007-0.787
					C354.643,200.604,356.196,202.126,356.216,204.022z"/>
				<path opacity="0.42" fill="#599AF2" d="M356.216,204.022l1.315,128.842c0.02,1.896-1.502,3.45-3.398,3.47l-77.008,0.786
					c-1.896,0.02-3.449-1.503-3.469-3.399l-1.316-128.841c-0.02-1.897,1.503-3.45,3.399-3.469l77.007-0.787
					C354.643,200.604,356.196,202.126,356.216,204.022z"/>
				<g>
					<path fill="#599AF2" d="M356.496,203.975l0.074,7.207l-83.876,0.857l-0.075-7.375c-0.019-1.815,1.438-3.302,3.254-3.321
						l77.132-0.788C354.914,200.535,356.477,202.066,356.496,203.975z"/>
					<g>
						<path fill="#FFFFFF" d="M346.146,204.952c-0.273,0-0.497-0.221-0.5-0.495c-0.003-0.276,0.219-0.502,0.495-0.505l6.291-0.064
							c0.232-0.003,0.502,0.219,0.505,0.495c0.003,0.276-0.219,0.502-0.495,0.505l-6.291,0.064
							C346.148,204.952,346.147,204.952,346.146,204.952z"/>
						<path fill="#FFFFFF" d="M346.162,206.56c-0.273,0-0.497-0.221-0.5-0.495c-0.003-0.276,0.219-0.502,0.495-0.505l6.291-0.064
							c0.002,0,0.003,0,0.005,0c0.273,0,0.497,0.221,0.5,0.495c0.003,0.276-0.219,0.502-0.495,0.505l-6.291,0.064
							C346.165,206.56,346.164,206.56,346.162,206.56z"/>
						<path fill="#FFFFFF" d="M346.179,208.167c-0.273,0-0.497-0.221-0.5-0.495c-0.003-0.276,0.219-0.502,0.495-0.505l6.291-0.064
							c0.002,0,0.003,0,0.005,0c0.273,0,0.497,0.221,0.5,0.495c0.003,0.276-0.219,0.502-0.495,0.505l-6.291,0.064
							C346.182,208.167,346.181,208.167,346.179,208.167z"/>
					</g>
					<path fill="#FFFFFF" d="M280.165,209.837c-0.126,0-0.253-0.047-0.35-0.143l-2.309-2.262c-0.272-0.267-0.278-0.708-0.013-0.981
						l2.177-2.222c0.195-0.195,0.512-0.201,0.707-0.007c0.197,0.193,0.201,0.51,0.008,0.707l-1.962,2.002l2.091,2.049
						c0.197,0.193,0.201,0.51,0.008,0.707C280.424,209.787,280.295,209.837,280.165,209.837z"/>
				</g>
				<g opacity="0.36">
					<path fill="#FFFFFF" d="M353.952,336.563l-77.268,0.436c-1.863,0.011-3.384-1.492-3.394-3.356l-0.151-26.775l84.018-0.474
						l0.15,26.775C357.318,335.033,355.815,336.553,353.952,336.563z"/>
					<path fill="#FFFFFF" d="M276.664,337.499c-1.026,0-1.992-0.397-2.723-1.119c-0.736-0.729-1.145-1.699-1.15-2.734l-0.154-27.275
						l85.018-0.479l0.153,27.275c0.013,2.137-1.716,3.885-3.853,3.897l-77.268,0.436
						C276.68,337.499,276.672,337.499,276.664,337.499z M273.643,307.364l0.148,26.275c0.004,0.769,0.307,1.488,0.854,2.028
						c0.542,0.536,1.259,0.831,2.021,0.831c0.005,0,0.011,0,0.017,0l77.268-0.436c1.585-0.009,2.867-1.307,2.858-2.892
						l-0.147-26.275L273.643,307.364z"/>
				</g>
				<g>
					<path fill="#FFFFFF" d="M347.595,231.919l-60.567-0.075c-1.077-0.001-1.95-0.876-1.949-1.954l0.008-6.041
						c0.002-1.078,0.876-1.951,1.954-1.949l60.566,0.075c1.078,0.001,1.95,0.876,1.949,1.954l-0.008,6.041
						C349.547,231.048,348.672,231.921,347.595,231.919z"/>
					<path fill="#FFFFFF" d="M347.889,239.624l-61.175-0.076c-0.909-0.001-1.646-0.74-1.646-1.649l0,0
						c0.001-0.91,0.74-1.647,1.65-1.646l61.174,0.076c0.91,0.001,1.646,0.74,1.646,1.65l0,0
						C349.537,238.888,348.799,239.625,347.889,239.624z"/>
					<path fill="#FFFFFF" d="M347.879,247.222l-61.174-0.076c-0.91-0.001-1.646-0.739-1.646-1.649l0,0
						c0.001-0.91,0.739-1.646,1.649-1.646l61.175,0.076c0.909,0.001,1.646,0.739,1.646,1.649l0,0
						C349.527,246.486,348.789,247.223,347.879,247.222z"/>
					<circle fill="#F7A9B4" cx="289.19" cy="258.354" r="4.147"/>
					<circle fill="#F7A9B4" cx="289.167" cy="277.155" r="4.147"/>
					<circle fill="#F7A9B4" cx="289.145" cy="295.403" r="4.147"/>
					<path fill="#FFFFFF" d="M335.37,256.888C335.37,256.888,335.37,256.888,335.37,256.888l-39.681-0.049
						c-0.275,0-0.499-0.225-0.499-0.501c0-0.275,0.225-0.499,0.5-0.499c0,0,0,0,0.001,0l39.68,0.049
						c0.275,0,0.499,0.225,0.499,0.501C335.87,256.664,335.646,256.888,335.37,256.888z"/>
					<path fill="#FFFFFF" d="M315.525,261.084C315.525,261.084,315.525,261.084,315.525,261.084l-19.841-0.024
						c-0.275,0-0.499-0.225-0.499-0.501c0-0.275,0.225-0.499,0.5-0.499c0,0,0,0,0.001,0l19.84,0.024
						c0.275,0,0.499,0.225,0.499,0.501C316.025,260.86,315.801,261.084,315.525,261.084z"/>
					<path fill="#FFFFFF" d="M335.347,276.306C335.347,276.306,335.347,276.306,335.347,276.306l-39.682-0.05
						c-0.275,0-0.499-0.225-0.499-0.501c0-0.275,0.225-0.499,0.5-0.499c0,0,0,0,0.001,0l39.681,0.05
						c0.275,0,0.499,0.225,0.499,0.501C335.847,276.082,335.622,276.306,335.347,276.306z"/>
					<path fill="#FFFFFF" d="M315.501,280.502C315.501,280.502,315.501,280.502,315.501,280.502l-19.841-0.024
						c-0.275,0-0.499-0.225-0.499-0.501c0-0.275,0.225-0.499,0.5-0.499c0,0,0,0,0.001,0l19.84,0.024
						c0.275,0,0.499,0.225,0.499,0.501C316.001,280.278,315.776,280.502,315.501,280.502z"/>
					<path fill="#FFFFFF" d="M335.324,294.035C335.324,294.035,335.324,294.035,335.324,294.035l-39.681-0.05
						c-0.275,0-0.499-0.225-0.499-0.501c0-0.275,0.225-0.499,0.5-0.499c0,0,0,0,0.001,0l39.68,0.05c0.275,0,0.499,0.225,0.499,0.501
						C335.824,293.812,335.6,294.035,335.324,294.035z"/>
					<path fill="#FFFFFF" d="M315.479,298.231C315.479,298.231,315.479,298.231,315.479,298.231l-19.842-0.024
						c-0.275,0-0.499-0.225-0.499-0.501c0-0.275,0.225-0.499,0.5-0.499c0,0,0,0,0.001,0l19.841,0.024
						c0.275,0,0.499,0.225,0.499,0.501C315.979,298.008,315.755,298.231,315.479,298.231z"/>
				</g>
			</g>
			<path fill="#FFFFFF" d="M292.247,317.908c-0.55,0-0.997-0.444-1-0.994c-0.003-0.553,0.442-1.003,0.994-1.006l45.918-0.259
				c0.002,0,0.004,0,0.006,0c0.55,0,0.997,0.444,1,0.994c0.003,0.553-0.442,1.003-0.994,1.006l-45.918,0.259
				C292.251,317.908,292.249,317.908,292.247,317.908z"/>
			<path fill="#FFFFFF" d="M301.594,324.813c-0.55,0-0.997-0.444-1-0.994c-0.003-0.553,0.442-1.003,0.994-1.006l27.303-0.154
				c0.002,0,0.004,0,0.006,0c0.55,0,0.997,0.444,1,0.994c0.003,0.553-0.442,1.003-0.994,1.006l-27.303,0.154
				C301.598,324.813,301.596,324.813,301.594,324.813z"/>
		</g>
	</g>
	<g>
		<g>
			<g>
				<path fill="#599AF2" d="M179.067,182.528h-71.687c-0.89,0-1.612-0.722-1.612-1.612v-20.835c0-0.891,0.722-1.612,1.612-1.612
					h71.687c0.891,0,1.612,0.722,1.612,1.612v20.835C180.68,181.807,179.958,182.528,179.067,182.528z"/>
				<g>
					<path fill="#F7A9B4" d="M118.364,177.789c-4.271,0-7.747-3.475-7.747-7.747c0-4.272,3.476-7.747,7.747-7.747
						c4.272,0,7.747,3.475,7.747,7.747C126.111,174.314,122.636,177.789,118.364,177.789z"/>
					<path fill="#FFFFFF" d="M117.679,172.951l-2.896-4.006c-0.247-0.342-0.169-0.821,0.171-1.068
						c0.167-0.12,0.368-0.166,0.571-0.136c0.202,0.033,0.378,0.142,0.498,0.308l1.845,2.55l9.211-9.211
						c0.143-0.144,0.335-0.224,0.54-0.224c0,0,0,0,0.001,0c0.204,0,0.396,0.08,0.541,0.224c0.298,0.298,0.298,0.783,0,1.082
						L117.679,172.951z"/>
				</g>
				<g>
					<line fill="#FFFFFF" x1="132.668" y1="166.526" x2="170.997" y2="166.526"/>
					<path opacity="0.38" fill="#FFFFFF" d="M170.997,167.026h-38.329c-0.276,0-0.5-0.224-0.5-0.5s0.224-0.5,0.5-0.5h38.329
						c0.277,0,0.5,0.224,0.5,0.5S171.273,167.026,170.997,167.026z"/>
				</g>
				<g>
					<line fill="#FFFFFF" x1="132.668" y1="171.073" x2="149.794" y2="171.073"/>
					<path opacity="0.38" fill="#FFFFFF" d="M149.794,171.573h-17.126c-0.276,0-0.5-0.224-0.5-0.5s0.224-0.5,0.5-0.5h17.126
						c0.277,0,0.5,0.224,0.5,0.5S150.071,171.573,149.794,171.573z"/>
				</g>
				<g>
					<line fill="#FFFFFF" x1="153.871" y1="171.073" x2="170.997" y2="171.073"/>
					<path opacity="0.38" fill="#FFFFFF" d="M170.997,171.573h-17.126c-0.276,0-0.5-0.224-0.5-0.5s0.224-0.5,0.5-0.5h17.126
						c0.277,0,0.5,0.224,0.5,0.5S171.273,171.573,170.997,171.573z"/>
				</g>
				<g>
					<line fill="#FFFFFF" x1="132.668" y1="175.831" x2="170.997" y2="175.831"/>
					<path opacity="0.38" fill="#FFFFFF" d="M170.997,176.331h-38.329c-0.276,0-0.5-0.224-0.5-0.5s0.224-0.5,0.5-0.5h38.329
						c0.277,0,0.5,0.224,0.5,0.5S171.273,176.331,170.997,176.331z"/>
				</g>
			</g>
			<g>
				<g>
					<path fill="#599AF2" d="M453.255,293.083h-71.687c-0.891,0-1.612-0.722-1.612-1.612v-20.836c0-0.891,0.722-1.612,1.612-1.612
						h71.687c0.891,0,1.612,0.722,1.612,1.612v20.836C454.867,292.361,454.146,293.083,453.255,293.083z"/>
					<g>
						<path fill="#F7A9B4" d="M392.552,288.344c-4.271,0-7.747-3.476-7.747-7.747s3.476-7.747,7.747-7.747s7.746,3.476,7.746,7.747
							S396.823,288.344,392.552,288.344z"/>
						<path fill="#FFFFFF" d="M391.866,283.506l-2.896-4.006c-0.12-0.166-0.168-0.368-0.136-0.569
							c0.032-0.202,0.142-0.38,0.308-0.499c0.163-0.119,0.363-0.17,0.569-0.136c0.203,0.033,0.381,0.143,0.5,0.311l1.844,2.548
							l9.211-9.211c0.299-0.298,0.782-0.299,1.081,0c0.298,0.298,0.298,0.783,0,1.081L391.866,283.506z M389.398,279.189
							c0.001,0.001,0.001,0.002,0.002,0.003L389.398,279.189z"/>
					</g>
					<g>
						<line fill="#FFFFFF" x1="406.854" y1="277.08" x2="445.184" y2="277.08"/>
						<path opacity="0.38" fill="#FFFFFF" d="M445.184,277.58h-38.329c-0.276,0-0.5-0.224-0.5-0.5s0.224-0.5,0.5-0.5h38.329
							c0.276,0,0.5,0.224,0.5,0.5S445.46,277.58,445.184,277.58z"/>
					</g>
					<g>
						<line fill="#FFFFFF" x1="406.854" y1="281.627" x2="423.981" y2="281.627"/>
						<path opacity="0.38" fill="#FFFFFF" d="M423.981,282.127h-17.127c-0.276,0-0.5-0.224-0.5-0.5s0.224-0.5,0.5-0.5h17.127
							c0.276,0,0.5,0.224,0.5,0.5S424.258,282.127,423.981,282.127z"/>
					</g>
					<g>
						<line fill="#FFFFFF" x1="428.058" y1="281.627" x2="445.184" y2="281.627"/>
						<path opacity="0.38" fill="#FFFFFF" d="M445.184,282.127h-17.126c-0.276,0-0.5-0.224-0.5-0.5s0.224-0.5,0.5-0.5h17.126
							c0.276,0,0.5,0.224,0.5,0.5S445.46,282.127,445.184,282.127z"/>
					</g>
					<g>
						<line fill="#FFFFFF" x1="406.854" y1="286.386" x2="445.184" y2="286.386"/>
						<path opacity="0.38" fill="#FFFFFF" d="M445.184,286.886h-38.329c-0.276,0-0.5-0.224-0.5-0.5s0.224-0.5,0.5-0.5h38.329
							c0.276,0,0.5,0.224,0.5,0.5S445.46,286.886,445.184,286.886z"/>
					</g>
				</g>
			</g>
		</g>
	</g>
</g>
<g id="DESIGNED_BY_FREEPIK" display="none">
</g>
</svg>
