<?xml version="1.0" encoding="utf-8"?>
<!-- Generator: Adobe Illustrator 24.2.1, SVG Export Plug-In . SVG Version: 6.00 Build 0)  -->
<svg version="1.1" xmlns="http://www.w3.org/2000/svg" xmlns:xlink="http://www.w3.org/1999/xlink" x="0px" y="0px"
	 viewBox="0 0 2884.8 2905.2" style="enable-background:new 0 0 2884.8 2905.2;" xml:space="preserve">
<g id="Background">
</g>
<g id="Illustration">
	<g>
		<path style="fill:#F4F7FA;" d="M2793.7,1134.8c-30.3-373.6-45.5-560.4-116-681.2C2475.8,107.5,1888.7,25.2,1518,56.8
			C1021.6,99,453.8,384.4,203.8,935.3c-227,500.4-122.3,1066.8,219.7,1437.3c627.1,679.2,1920.6,557.9,2236.5,112.3
			c126.1-177.9,135.2-462,148.5-879.3C2815.1,1404.7,2802.6,1244.6,2793.7,1134.8z"/>
		<g>
			<g>
				<g>
					<defs>
						<path id="SVGID_1_" d="M2555.8,279.1c-32.1-26.6-80.8-41-121.9-43.9c-291.7-20.7-334.3,589-289.6,725.3s15.7,181-214,252.3
							c-229.7,71.3-119.5,208.5-91.5,288.8c28,80.3,83.4,148.1-84,227.8c-167.5,79.8-109.3,129.2-109.3,129.2
							s308.8,315.9,291.8,214.8c-17.1-101.1,13.8-253.9,290.7-265.5c119.3-5,301.9-61.9,342.4-189.6c9.4-29.7,16-75.2,8.8-105.9
							c-9.9-42.7-38-76.3-53.5-116.5c-36.3-93.6,54.7-162.2,107-224.8c27.3-32.7,54.6-66.2,75.6-103.5
							c43.4-77.4,27.2-160.3-20.1-231.6c-22.7-34.2-54.2-70.5-64.1-111.3c-10.6-43.8-1.4-103.7,1.2-148.7c2-35.3,5.3-70.6,3.4-106
							C2624.9,404.1,2609.5,323.5,2555.8,279.1z"/>
					</defs>
					<linearGradient id="SVGID_2_" gradientUnits="userSpaceOnUse" x1="1958.228" y1="2070.1929" x2="2688.6169" y2="97.5683">
						<stop  offset="3.597120e-03" style="stop-color:#E38DDD"/>
						<stop  offset="1" style="stop-color:#9571F6"/>
					</linearGradient>
					<use xlink:href="#SVGID_1_"  style="overflow:visible;fill:url(#SVGID_2_);"/>
					<clipPath id="SVGID_3_">
						<use xlink:href="#SVGID_1_"  style="overflow:visible;"/>
					</clipPath>
					<g style="opacity:0.8;clip-path:url(#SVGID_3_);">
						<g>
							<path style="fill:#FFFFFF;" d="M1621.3,2035.9c-2,0.7-4.3-0.1-5.3-2.1c-1.1-2.1-0.3-4.7,1.8-5.8
								c1.3-0.7,131.3-69.1,276.4-181.7c133.6-103.8,307.8-267.4,378.3-457.7c58.9-158.9,112.6-421.6,147.3-720.7
								c31.2-268.2,36.1-466.6,22.8-503.4c-0.8-2.2,0.4-4.7,2.6-5.5c2.2-0.8,4.7,0.4,5.5,2.6c15.5,43.1,5.7,265.9-22.4,507.3
								c-34.8,299.8-88.7,563.2-147.8,722.7c-71.2,192.2-246.6,357.1-381.2,461.6c-145.6,113.1-276.2,181.8-277.5,182.4
								C1621.6,2035.8,1621.4,2035.9,1621.3,2035.9z"/>
						</g>
						<g>
							<path style="fill:#FFFFFF;" d="M2419.2,720c-2.2,0.8-4.5,0.2-5.3-2c-1.1-2.9-109.8-295.5-250-361.6c-2.2-1-3-3.5-2-5.6
								c1-2.2,3.6-3,5.8-2c143.4,67.6,249.9,354,254.4,366.2C2422.8,717.2,2421.5,719.2,2419.2,720
								C2419.3,720,2419.3,720,2419.2,720z"/>
						</g>
						<g>
							<path style="fill:#FFFFFF;" d="M2366.2,1059.3c-1.7,0.6-3.6,0.1-4.8-1.3c-1.5-1.8-1.3-4.6,0.6-6.1
								c0.8-0.7,80.9-66.3,179.6-121.4c133.5-74.5,235.8-95.2,304-61.8c2.1,1,3,3.6,2,5.8c-1.1,2.1-3.6,3-5.8,2
								c-157.1-77-471.2,179.5-474.4,182.1C2367.1,1058.8,2366.7,1059.1,2366.2,1059.3z"/>
						</g>
						<g>
							<path style="fill:#FFFFFF;" d="M2017.7,1752.7c-0.4,0.2-0.9,0.2-1.4,0.3c-2.4,0-4.3-1.9-4.4-4.2c0-1.3-2.2-126.8-28.5-259
								c-24.1-121.3-73.8-273.2-174-308.2c-2.2-0.8-3.4-3.2-2.6-5.5c0.8-2.3,3.2-3.4,5.5-2.6c83.5,29.2,144,135.1,179.6,314.7
								c26.4,133,28.6,259.2,28.7,260.5C2020.6,1750.5,2019.4,1752.1,2017.7,1752.7z"/>
						</g>
						<g>
							<path style="fill:#FFFFFF;" d="M2195.9,1549.9c-1.7,0.6-3.8,0.1-4.9-1.5c-1.4-1.9-1-4.6,0.9-6
								c13.9-10.3,341.5-251.1,469.3-228.1c2.3,0.4,3.9,2.7,3.5,5c-0.4,2.3-2.7,3.9-5,3.5c-124.2-22.3-459.3,224.1-462.6,226.6
								C2196.7,1549.6,2196.3,1549.8,2195.9,1549.9z"/>
						</g>
					</g>
				</g>
			</g>
			<g>
				<g>
					<defs>
						<path id="SVGID_4_" d="M2811.8,1177.2c-21.2-35.8-62.1-65.9-99.9-82.6c-267.5-118.1-513.9,441.2-517.9,584.5
							s-46.4,175.7-286.7,165s-183,155.8-183.8,240.8c-0.8,85,28.4,167.6-156.2,186c-184.6,18.4-146.5,84.6-146.5,84.6
							s183.7,401.8,201.9,300.8c18.2-101,98.9-234.2,363.4-151.4c113.9,35.7,305,43.9,386.3-62.6c18.9-24.8,40.5-65.3,44.1-96.7
							c5.1-43.5-9.9-84.7-10.9-127.8c-2.4-100.4,106.4-134.2,176.8-175.3c36.8-21.5,73.8-43.8,106.1-71.8
							c67.1-58.1,79.8-141.7,59.4-224.8c-9.8-39.9-27.2-84.7-22.7-126.4c4.8-44.8,33.8-98,51.4-139.6c13.8-32.6,28.9-64.6,39-98.6
							C2834.6,1318.1,2847.3,1237.1,2811.8,1177.2z"/>
					</defs>
					<linearGradient id="SVGID_5_" gradientUnits="userSpaceOnUse" x1="1417.5369" y1="1875.4451" x2="2834.2622" y2="1875.4451">
						<stop  offset="0" style="stop-color:#FF9085"/>
						<stop  offset="1" style="stop-color:#FB6FBB"/>
					</linearGradient>
					<use xlink:href="#SVGID_4_"  style="overflow:visible;fill:url(#SVGID_5_);"/>
					<clipPath id="SVGID_6_">
						<use xlink:href="#SVGID_4_"  style="overflow:visible;"/>
					</clipPath>
					<g style="opacity:0.8;clip-path:url(#SVGID_6_);">
						<g>
							<path style="fill:#FFFFFF;" d="M1337.9,2514.1c-2.1,0-4-1.6-4.3-3.7c-0.3-2.4,1.3-4.5,3.7-4.9c1.4-0.2,146.9-20.6,321.5-77.5
								c160.9-52.4,380.1-147.5,510.8-302.7c109.2-129.6,248.6-358.6,382.5-628.3c120.1-241.8,191.8-426.8,191.8-466
								c0-2.4,1.9-4.3,4.3-4.3c2.4,0,4.3,1.9,4.3,4.3c0,45.8-84.7,252.1-192.7,469.8c-134.2,270.3-274,499.9-383.6,630
								c-132.1,156.8-352.9,252.6-514.9,305.4c-175.3,57.1-321.4,77.6-322.9,77.8C1338.3,2514.1,1338.1,2514.1,1337.9,2514.1z"/>
						</g>
						<g>
							<path style="fill:#FFFFFF;" d="M2534.1,1546.7c-2.4,0-4.3-1.8-4.3-4.2c0-3.1-3.3-315.4-113-425.1c-1.7-1.7-1.7-4.4,0-6.1
								c1.7-1.7,4.4-1.7,6.1,0c112.1,112.1,115.4,418.1,115.5,431C2538.5,1544.8,2536.6,1546.7,2534.1,1546.7
								C2534.2,1546.7,2534.1,1546.7,2534.1,1546.7z"/>
						</g>
						<g>
							<path style="fill:#FFFFFF;" d="M2369.4,1847.1c-1.8,0-3.4-1.1-4.1-2.9c-0.8-2.2,0.4-4.7,2.6-5.5c1-0.3,98.5-35.1,210.1-53.5
								c150.8-24.9,254.1-9.9,307,44.7c1.7,1.7,1.6,4.4-0.1,6.1c-1.7,1.7-4.4,1.6-6.1-0.1c-121.7-125.6-504.2,9.5-508,10.9
								C2370.4,1847,2369.9,1847.1,2369.4,1847.1z"/>
						</g>
						<g>
							<path style="fill:#FFFFFF;" d="M1806.8,2381.7c-0.5,0-0.9-0.1-1.4-0.2c-2.3-0.8-3.5-3.2-2.7-5.5
								c0.4-1.2,40.8-120.1,60.8-253.4c18.4-122.3,23-282-59.5-348.8c-1.9-1.5-2.1-4.2-0.6-6.1c1.5-1.9,4.2-2.1,6.1-0.6
								c68.7,55.7,89.8,175.8,62.5,356.9c-20.2,134.1-60.8,253.6-61.2,254.8C1810.3,2380.6,1808.6,2381.7,1806.8,2381.7z"/>
						</g>
						<g>
							<path style="fill:#FFFFFF;" d="M2043.1,2251.2c-1.9,0-3.6-1.2-4.1-3.1c-0.7-2.3,0.6-4.7,2.9-5.4
								c16.5-5,406.4-120.8,518.8-55.9c2.1,1.2,2.8,3.8,1.6,5.9c-1.2,2.1-3.8,2.8-5.9,1.6c-109.3-63-508,55.5-512,56.7
								C2044,2251.2,2043.5,2251.2,2043.1,2251.2z"/>
						</g>
					</g>
				</g>
			</g>
		</g>
		<g>
			<g>
				<path style="fill:#D8DEE8;" d="M1915.1,169.5l-3.1,22.1c-10.2,0.5-20.3,1.8-30.1,4l-8.3-20.6c-2.3-5.6-8.7-8.3-14.3-6
					l-35.4,14.6c-5.7,2.3-8.4,8.8-6.2,14.4l8.4,20.8c-8.6,5.5-16.7,11.6-24.2,18.5l-17.8-13.8c-4.8-3.7-11.8-2.8-15.5,2.1
					l-23.8,30.4c-3.8,4.9-3,11.8,1.8,15.6l17.8,13.9c-4.7,8.9-8.7,18.3-12,28.2l-22.6-3c-6.1-0.8-11.7,3.5-12.6,9.6l-5.7,38.3
					c-0.9,6.1,3.3,11.8,9.4,12.6l22.7,3c0.3,10.4,1.4,20.5,3.4,30.4l-21.3,8.9c-5.7,2.4-8.6,9-6.3,14.8l14.2,36.1
					c2.3,5.8,8.8,8.5,14.5,6.1l21.3-8.9c5.4,8.7,11.5,16.9,18.3,24.6l-14.2,18.4c-3.8,5-3,12.1,1.8,15.9l30.4,23.9
					c4.9,3.8,11.9,2.9,15.8-2.1l14-18.3c9,4.8,18.4,8.7,28.3,11.9l-3.2,22.9c-0.9,6.3,3.4,12,9.5,12.8l38.4,5
					c6.1,0.8,11.8-3.6,12.7-9.9l3.1-22.7c10.4-0.4,20.7-1.8,30.7-4.1l8.4,21c2.3,5.8,8.9,8.6,14.6,6.1l35.8-15.2
					c5.7-2.4,8.5-9.1,6.1-14.9l-8.4-20.8c8.8-5.6,17-12.1,24.6-19.2l17.5,13.6c4.9,3.8,11.9,2.8,15.7-2.1l23.5-31.1
					c3.7-5,2.8-12.1-2.1-15.9l-17.4-13.5c4.7-9.2,8.7-18.9,11.8-28.9l21.7,2.8c6.1,0.8,11.7-3.6,12.5-9.7l4.9-38.4
					c0.8-6.1-3.5-11.8-9.6-12.5l-21.6-2.8c-0.4-10.5-1.8-20.8-4-30.7l20.1-8.4c5.6-2.4,8.3-8.9,6-14.6l-14.7-35.4
					c-2.3-5.7-8.8-8.3-14.4-6l-20.2,8.4c-5.5-8.6-11.7-16.8-18.6-24.3l13.3-17.4c3.7-4.8,2.8-11.8-2-15.5l-30.2-23.2
					c-4.8-3.7-11.7-2.8-15.5,2l-13.4,17.4c-8.9-4.6-18.3-8.5-28.1-11.5l3-21.9c0.8-6-3.4-11.5-9.4-12.3l-37.7-4.9
					C1921.5,159.3,1916,163.5,1915.1,169.5z M1782.3,348.2c10.9-75.8,80.4-128.9,155.4-119c74.9,9.8,127.6,79,117.5,154.8
					c-10.1,76.3-79.8,130.5-155.6,120.5C1823.9,494.6,1771.4,424.4,1782.3,348.2z"/>
			</g>
			<g>
				<path style="fill:#D8DEE8;" d="M1337.5,157.6l-4.8,34.1c-15.8,0.7-31.4,2.8-46.5,6.2l-12.9-31.8c-3.5-8.7-13.4-12.8-22.2-9.2
					l-54.7,22.5c-8.8,3.6-13,13.6-9.5,22.3l13,32.2c-13.2,8.4-25.8,18-37.4,28.6l-27.5-21.3c-7.4-5.7-18.2-4.3-24,3.2l-36.7,47
					c-5.9,7.5-4.6,18.3,2.8,24.1l27.6,21.4c-7.3,13.8-13.5,28.4-18.5,43.5l-35-4.6c-9.4-1.2-18.1,5.4-19.5,14.9l-8.8,59.3
					c-1.4,9.5,5.1,18.2,14.5,19.4l35.1,4.6c0.4,16,2.2,31.8,5.3,47.1l-32.9,13.7c-8.9,3.7-13.2,13.9-9.7,22.8l21.9,55.7
					c3.5,8.9,13.6,13.2,22.5,9.4l32.9-13.8c8.3,13.5,17.7,26.2,28.2,38l-22,28.5c-5.9,7.7-4.7,18.8,2.8,24.7l47.1,36.9
					c7.5,5.9,18.5,4.4,24.4-3.3l21.7-28.3c13.9,7.4,28.5,13.5,43.8,18.4l-4.9,35.3c-1.4,9.7,5.3,18.5,14.8,19.8l59.4,7.8
					c9.5,1.2,18.3-5.6,19.6-15.3l4.8-35.1c16.2-0.7,32-2.8,47.5-6.3l13,32.4c3.6,9,13.7,13.2,22.6,9.5l55.4-23.5
					c8.9-3.8,13.1-14.1,9.4-23l-13-32.2c13.5-8.7,26.3-18.6,38.1-29.6l27.1,21.1c7.6,5.9,18.4,4.4,24.2-3.3l36.3-48.1
					c5.8-7.7,4.4-18.7-3.2-24.5l-26.8-20.8c7.3-14.2,13.4-29.2,18.2-44.8l33.6,4.4c9.4,1.2,18-5.5,19.3-15l7.6-59.4
					c1.2-9.5-5.4-18.2-14.8-19.4l-33.5-4.4c-0.7-16.2-2.7-32.1-6.2-47.5l31-13c8.7-3.7,12.9-13.7,9.2-22.5l-22.7-54.8
					c-3.6-8.7-13.6-12.9-22.3-9.3l-31.2,13c-8.5-13.3-18.1-25.9-28.8-37.6l20.6-26.9c5.7-7.5,4.3-18.2-3.1-23.9l-46.6-35.8
					c-7.4-5.7-18.1-4.3-23.9,3.2l-20.8,27c-13.8-7.1-28.3-13.1-43.5-17.8l4.6-33.8c1.3-9.3-5.2-17.9-14.6-19.1l-58.2-7.6
					C1347.4,141.7,1338.8,148.3,1337.5,157.6z M1132.2,433.9c16.8-117.1,124.3-199.3,240.2-184.1
					c115.9,15.2,197.3,122.1,181.7,239.4c-15.7,118-123.4,201.7-240.5,186.4C1196.4,660.2,1115.2,551.7,1132.2,433.9z"/>
			</g>
		</g>
		<g>
			
				<linearGradient id="SVGID_7_" gradientUnits="userSpaceOnUse" x1="902.2595" y1="1541.4631" x2="484.0794" y2="1587.0826" gradientTransform="matrix(-1 0 0 1 2683.3708 0)">
				<stop  offset="0" style="stop-color:#444B8C"/>
				<stop  offset="0.9964" style="stop-color:#26264F"/>
			</linearGradient>
			<path style="fill:url(#SVGID_7_);" d="M1281.8,487.9L1027,2605.4c-3.8,31.7,18.1,60.2,48.7,63.3l1061.1,116.5
				c65,4,100.6-29.2,104.6-62.9l267.5-2251.3c4-33.6-27.9-64-93.2-64L1345,429.5C1314,430,1285.6,456.3,1281.8,487.9z"/>
			
				<linearGradient id="SVGID_8_" gradientUnits="userSpaceOnUse" x1="1270.7157" y1="487.3569" x2="236.6775" y2="4007.6577" gradientTransform="matrix(-1 0 0 1 2683.3708 0)">
				<stop  offset="0" style="stop-color:#444B8C"/>
				<stop  offset="0.9964" style="stop-color:#26264F"/>
			</linearGradient>
			<path style="fill:url(#SVGID_8_);" d="M1234,484.2L977.9,2612.4c-3.8,31.9,18.1,60.5,48.9,63.6l1100.1,109.5
				c34.5,3.4,66.1-21.5,70.1-55.5l269-2262.9c4-33.7-21.3-60.9-56.2-60.3l-1112.3,18.8C1266.4,426.1,1237.8,452.5,1234,484.2z"/>
			<path style="fill:#D8DEE8;" d="M1254.9,601.6l-237.4,1973.2c-3.6,29.8,17,56.5,45.8,59.3l1034.6,100.6
				c32.1,3.1,61.4-20.2,65.2-51.8l248.6-2090.4c3.7-31.4-19.8-56.8-52.2-56.5l-1045.2,11.1C1285.1,547.4,1258.5,571.9,1254.9,601.6z
				"/>
			
				<linearGradient id="SVGID_9_" gradientUnits="userSpaceOnUse" x1="883.2372" y1="400.6491" x2="-332.0384" y2="3692.02" gradientTransform="matrix(-1 0 0 1 2683.3708 0)">
				<stop  offset="0" style="stop-color:#FFC444"/>
				<stop  offset="0.9964" style="stop-color:#F36F56"/>
			</linearGradient>
			<path style="fill:url(#SVGID_9_);" d="M1809.7,482.8c-1.4,11.3,6.8,20.4,18.2,20.3c11.4-0.1,21.8-9.5,23.1-20.8
				c1.4-11.4-6.8-20.4-18.2-20.3C1821.4,462.1,1811.1,471.4,1809.7,482.8z"/>
			<g>
				<path style="fill:#FFFFFF;" d="M1433.8,1926.2c211.8-391.6,528.2-508.8,623.5-912.4c51.5-218.2,16.4-427-42.7-600.3l395.2-6.7
					c34.9-0.6,60.2,26.5,56.2,60.3L2197,2730c-4,33.9-35.6,58.9-70.1,55.5l-864.8-86.1C1255.7,2348.5,1339.4,2100.7,1433.8,1926.2z"
					/>
			</g>
		</g>
		<g>
			<g>
				
					<linearGradient id="SVGID_10_" gradientUnits="userSpaceOnUse" x1="8124.8047" y1="7867.1206" x2="7293.5508" y2="8650.9648" gradientTransform="matrix(-1 0 0 -1 -692.5627 17425.582)">
					<stop  offset="0" style="stop-color:#311944"/>
					<stop  offset="1" style="stop-color:#893976"/>
				</linearGradient>
				<path style="fill:url(#SVGID_10_);" d="M189.6,708.8c0-208.1,181.5-376.7,399.3-376.7c211.4,0,378.2,159.8,378.2,356.9
					c0,197.1-166.8,365.4-378.2,376.2C371.1,1076.3,189.6,916.9,189.6,708.8z"/>
			</g>
			<g>
				<linearGradient id="SVGID_11_" gradientUnits="userSpaceOnUse" x1="337.9581" y1="911.304" x2="1004.07" y2="306.8252">
					<stop  offset="0" style="stop-color:#FF9085"/>
					<stop  offset="1" style="stop-color:#FB6FBB"/>
				</linearGradient>
				<path style="fill:url(#SVGID_11_);" d="M213.1,692.2c0-208.1,176.3-376.7,387.8-376.7c205.3,0,367.3,159.8,367.3,356.9
					c0,197.1-162,365.4-367.3,376.2C389.3,1059.7,213.1,900.3,213.1,692.2z"/>
			</g>
			<g style="opacity:0.5;">
				<path style="fill:#FFFFFF;" d="M273.4,690.6c0-174.8,148.1-316.5,325.8-316.5c172.5,0,308.6,134.3,308.6,299.8
					c0,165.6-136.1,307-308.6,316C421.5,999.4,273.4,865.4,273.4,690.6z"/>
			</g>
			<path style="opacity:0.5;fill:#FFFFFF;" d="M587,401c172.5,0,308.6,134.3,308.6,299.8c0,39.4-7.8,77.3-21.8,112.5
				c21.8-42.4,34.1-89.8,34.1-139.4c0-165.6-136.1-299.8-308.6-299.8c-137.1,0-256.4,84.3-303.9,203.1
				C349.1,472.8,460.5,401,587,401z"/>
			<g>
				<path style="fill:#FFFFFF;" d="M451.9,647.8v152.6c0,44.1,37.1,78.9,82.8,77.7l113.2-3c45.1-1.2,81.5-37.5,81.5-81.2V643
					L451.9,647.8z M556.1,805.6l21-63.7c-9-4.7-15.1-13.8-15.1-24.5c0-15.7,13.1-28.6,29.3-28.9c16.2-0.3,29.3,12.1,29.3,27.7
					c0,10.6-6.1,20-15.1,25.1l21,62.7L556.1,805.6z"/>
				<path style="fill:#FFFFFF;" d="M697.2,629.8c-12,0.2-21.7-9.1-21.7-20.8c0-44.8-37.7-80.9-84.1-80.3
					c-46.6,0.6-84.6,37.8-84.6,82.9c0,11.7-9.9,21.4-22.1,21.6c-12.2,0.2-22.1-9.2-22.1-20.9c0-68.7,57.9-125.2,128.8-126
					c70.5-0.8,127.5,53.9,127.5,121.9C718.9,620,709.2,629.6,697.2,629.8z"/>
			</g>
		</g>
		<g>
			
				<linearGradient id="SVGID_12_" gradientUnits="userSpaceOnUse" x1="-951.1569" y1="1436.9171" x2="-819.1575" y2="1571.2736" gradientTransform="matrix(-1 0 0 1 61.686 0)">
				<stop  offset="0" style="stop-color:#FFC444"/>
				<stop  offset="0.9964" style="stop-color:#F36F56"/>
			</linearGradient>
			<path style="fill:url(#SVGID_12_);" d="M959.3,1500.1c0,0-7.7-28.9-2.2-36.2c5.5-7.4,38.8-36.9,35.6-27.3c-3.2,9.6-8,16-8,16
				s18,8.3,6.4,20.8c-11.5,12.5-15.4,15.4-16,26.6C974.3,1511.3,967,1515.2,959.3,1500.1z"/>
			
				<linearGradient id="SVGID_13_" gradientUnits="userSpaceOnUse" x1="-623.967" y1="2713.1519" x2="-625.0793" y2="2415.0842" gradientTransform="matrix(-1 0 0 1 61.686 0)">
				<stop  offset="0" style="stop-color:#AA80F9"/>
				<stop  offset="0.9964" style="stop-color:#6165D7"/>
			</linearGradient>
			<path style="fill:url(#SVGID_13_);" d="M638.9,2745.9c0,0-4.1,25-3.6,33.8c0.5,8.9,99.1,13.4,100.1,6.8c1-6.7-16.3-17.2-28.5-21
				c-12.2-3.7-47.8-13.7-47.8-13.7L638.9,2745.9z"/>
			
				<linearGradient id="SVGID_14_" gradientUnits="userSpaceOnUse" x1="-3692.4771" y1="3017.8171" x2="-3690.6357" y2="2863.1545" gradientTransform="matrix(-0.9968 7.990000e-02 7.990000e-02 0.9968 -3265.6606 95.8031)">
				<stop  offset="0" style="stop-color:#FFC444"/>
				<stop  offset="0.9964" style="stop-color:#F36F56"/>
			</linearGradient>
			<path style="fill:url(#SVGID_14_);" d="M662.8,2721l-3.1,31c0,0-11.5,7.6-21.5,1.7l-5-33.8L662.8,2721z"/>
			
				<linearGradient id="SVGID_15_" gradientUnits="userSpaceOnUse" x1="-448.2372" y1="2712.4961" x2="-449.3495" y2="2414.4285" gradientTransform="matrix(-1 0 0 1 61.686 0)">
				<stop  offset="0" style="stop-color:#AA80F9"/>
				<stop  offset="0.9964" style="stop-color:#6165D7"/>
			</linearGradient>
			<path style="fill:url(#SVGID_15_);" d="M463,2786.3c0,0-4.1,25-3.6,33.8c0.5,8.9,99.1,13.4,100.1,6.8c1-6.7-16.3-17.2-28.5-21
				c-12.2-3.7-47.8-13.7-47.8-13.7L463,2786.3z"/>
			
				<linearGradient id="SVGID_16_" gradientUnits="userSpaceOnUse" x1="-3513.6362" y1="3019.9426" x2="-3511.7949" y2="2865.2783" gradientTransform="matrix(-0.9968 7.990000e-02 7.990000e-02 0.9968 -3265.6606 95.8031)">
				<stop  offset="0" style="stop-color:#FFC444"/>
				<stop  offset="0.9964" style="stop-color:#F36F56"/>
			</linearGradient>
			<path style="fill:url(#SVGID_16_);" d="M487,2761.4l-3.1,31c0,0-11.5,7.6-21.5,1.7l-5-33.8L487,2761.4z"/>
			
				<linearGradient id="SVGID_17_" gradientUnits="userSpaceOnUse" x1="-589.0513" y1="2032.8633" x2="-479.7975" y2="2591.4214" gradientTransform="matrix(-1 0 0 1 61.686 0)">
				<stop  offset="0" style="stop-color:#311944"/>
				<stop  offset="1" style="stop-color:#893976"/>
			</linearGradient>
			<path style="fill:url(#SVGID_17_);" d="M645,1910.7c11.4,23.1,22.8,46.2,34.2,69.3c9.2,131.8,13.7,275.2,10.8,428.5
				c-2.2,114.1-8.3,222.1-17,323.5c-15.4-0.7-30.9-1.4-46.3-2.1c-22.3-44.3-48.7-111.5-51.1-194.4c-2.5-86.5,23.7-98,22-180.8
				c-2.2-107.3-47.2-136-71.1-265.1c-9.2-49.4-15.3-113.9-8-192.1C560.5,1901.9,602.7,1906.3,645,1910.7z"/>
			
				<linearGradient id="SVGID_18_" gradientUnits="userSpaceOnUse" x1="-3781.6416" y1="2520.4077" x2="-3616.9736" y2="2520.4077" gradientTransform="matrix(-0.9968 7.990000e-02 7.990000e-02 0.9968 -3265.6606 95.8031)">
				<stop  offset="0" style="stop-color:#311944"/>
				<stop  offset="1" style="stop-color:#893976"/>
			</linearGradient>
			<path style="opacity:0.3;fill:url(#SVGID_18_);" d="M518.3,1897.5c22.8,2.4,45.6,4.8,68.4,7.1c41,71.4,52.5,145.8,45.3,178.7
				c-10.2,46.5-37.1,61.4-35.7,108.1c1.5,46.2,28.7,58.2,46,112.7c12,37.7,8.8,72.4,2,140.2c-13.7,136.6-46.7,178.4-19.1,223.2
				c7.9,12.7,22,27.9,49.7,39.5c-0.7,8.4-1.3,16.8-2.1,25.1c-15.4-0.7-30.9-1.4-46.3-2.1c-22.3-44.3-48.7-111.5-51.1-194.4
				c-2.5-86.5,23.7-98,22-180.8c-2.2-107.3-47.2-136-71.1-265.1C517.1,2040.2,510.9,1975.8,518.3,1897.5z"/>
			
				<linearGradient id="SVGID_19_" gradientUnits="userSpaceOnUse" x1="-3688.677" y1="2543.9297" x2="-3438.6953" y2="2543.9297" gradientTransform="matrix(-0.9968 7.990000e-02 7.990000e-02 0.9968 -3265.6606 95.8031)">
				<stop  offset="0" style="stop-color:#311944"/>
				<stop  offset="1" style="stop-color:#893976"/>
			</linearGradient>
			<path style="fill:url(#SVGID_19_);" d="M583.6,1952.3c-21.4,116.6-40.3,241.5-55,373.9c-17.8,159.8-27.3,310.5-31,450.5
				c-17,0.5-33.9,1-50.9,1.4c-66.8-132.2-70.9-221.8-61.3-280.2c3.7-22.5,13.8-66.6,16.1-132.5c1.6-45.9-1.3-80.9-5-122.9
				c-8-92.1-17.8-112.2-19.2-182.7c-1.3-66.1-1.6-99.6,17.3-119.1C444.4,1889.2,573.8,1947.8,583.6,1952.3z"/>
			
				<linearGradient id="SVGID_20_" gradientUnits="userSpaceOnUse" x1="-749.6069" y1="1514.4208" x2="-565.2514" y2="2698.3955" gradientTransform="matrix(-1 0 0 1 61.686 0)">
				<stop  offset="0" style="stop-color:#AA80F9"/>
				<stop  offset="0.9964" style="stop-color:#6165D7"/>
			</linearGradient>
			<path style="fill:url(#SVGID_20_);" d="M950.4,1495.6c11.3-0.8,22.6-1.6,33.8-2.4c26.6,107.5,7.5,211.8-52.5,250.1
				c-93.8,59.9-268.2-53-305.9-175.9c-16.6-54-12.8-131.8,20.3-147c9.2-4.2,23.5-4.9,54.4,12.5c92.4,51.9,94.8,149.9,141.8,158.2
				C863.1,1595,896.9,1581.7,950.4,1495.6z"/>
			
				<linearGradient id="SVGID_21_" gradientUnits="userSpaceOnUse" x1="-3455.9048" y1="3003.9438" x2="-3271.5493" y2="4187.918" gradientTransform="matrix(-0.9968 7.990000e-02 7.990000e-02 0.9968 -3265.6606 95.8031)">
				<stop  offset="0" style="stop-color:#AA80F9"/>
				<stop  offset="0.9964" style="stop-color:#6165D7"/>
			</linearGradient>
			<path style="fill:url(#SVGID_21_);" d="M692.1,2003.7c16.2-27-4.2-53-8.8-104c-5.3-57.9,17-67.5,39.1-163.5
				c14.7-63.8,28.7-125.1,11.9-196.7c-8.1-34.4-21.7-92.6-69.9-120.8c-24.9-14.5-58.9-13.1-125.8-9.6
				c-82.8,4.3-124.2,6.5-155.1,22.8c-4.5,2.4-98.4,53.5-104.9,136.7c-6.6,84.8,85.7,96.1,98,209.2c5.5,50.7-4.3,128.8-10.7,179.4
				c-6.1,48.6-10.4,61-0.8,75.8c23.1,35.5,93.9,25.4,235.4,5.1C656.1,2030.1,680,2023.8,692.1,2003.7z"/>
			
				<linearGradient id="SVGID_22_" gradientUnits="userSpaceOnUse" x1="-3186.2778" y1="2573.5994" x2="-3744.1794" y2="1772.651" gradientTransform="matrix(-0.9968 7.990000e-02 7.990000e-02 0.9968 -3265.6606 95.8031)">
				<stop  offset="0" style="stop-color:#AA80F9"/>
				<stop  offset="0.9964" style="stop-color:#6165D7"/>
			</linearGradient>
			<path style="fill:url(#SVGID_22_);" d="M476.8,1759.6c-6,22-27.5,38.5-42.5,92.1c-3.2,11.6-26.3,94,3.6,114.2
				c17.3,11.7,32.8-10.5,74.7-13.4c72.6-5,107.2,56,154.6,39.3c8.2-2.9,19.1-9.1,29.9-23.2c2.2,12.8,1.8,23.8-5,35.1
				c-12.1,20.1-36,26.4-91.5,34.4c-141.5,20.2-212.3,30.3-235.4-5.1c-9.6-14.7-5.4-27.2,0.8-75.8c6.4-50.6,16.2-128.7,10.7-179.4
				c-12.3-113-104.6-124.4-98-209.2c1.8-22.7,10.1-42.8,21.2-60.4C416.9,1555.6,495.6,1690.3,476.8,1759.6z"/>
			
				<linearGradient id="SVGID_23_" gradientUnits="userSpaceOnUse" x1="-228.8149" y1="1823.741" x2="-332.6061" y2="1963.9498" gradientTransform="matrix(-1 0 0 1 61.686 0)">
				<stop  offset="0" style="stop-color:#FFC444"/>
				<stop  offset="0.9964" style="stop-color:#F36F56"/>
			</linearGradient>
			<path style="fill:url(#SVGID_23_);" d="M328.9,1926.3l23.4,15c4.2-4.9,13.9-14.7,29.2-18c17.1-3.8,36.8,1.6,37.3,7.1
				c0.4,4.4-11.6,8.8-13.5,9.5c-14.9,5.5-26,0.9-32.1,6.9c-2.1,2.1-4.8,6.1-10.9,9.7c-1.6,1-3.3,1.8-4.2,2.2
				c-10,3.9-27.1-13.5-28.6-15L328.9,1926.3z"/>
			
				<linearGradient id="SVGID_24_" gradientUnits="userSpaceOnUse" x1="-3240.0471" y1="2970.3345" x2="-3055.6914" y2="4154.311" gradientTransform="matrix(-0.9968 7.990000e-02 7.990000e-02 0.9968 -3265.6606 95.8031)">
				<stop  offset="0" style="stop-color:#AA80F9"/>
				<stop  offset="0.9964" style="stop-color:#6165D7"/>
			</linearGradient>
			<path style="fill:url(#SVGID_24_);" d="M398.1,1619c16.9-40.6,28.7-102.7,1.9-195c-176.4,69.5-266.3,234.3-231.2,364.9
				c29,107.7,134.3,160.1,157.8,171.1c5.5-12.4,10.9-24.9,16.4-37.3c-27.2-30.3-57.9-75.2-53.6-126.3
				C295.4,1725.4,363.8,1701.2,398.1,1619z"/>
			
				<linearGradient id="SVGID_25_" gradientUnits="userSpaceOnUse" x1="-4918.8901" y1="4842.5415" x2="-4918.8901" y2="4683.0542" gradientTransform="matrix(-0.7795 0.6265 0.6265 0.7795 -6282.8779 781.2827)">
				<stop  offset="0" style="stop-color:#FFC444"/>
				<stop  offset="0.9964" style="stop-color:#F36F56"/>
			</linearGradient>
			<path style="fill:url(#SVGID_25_);" d="M534.2,1325.6c0,0-1.4,30.9-11,54c-8.7,20.9-54.2,34-63.4,38.7
				c-9.2,4.7,17.3,18.3,43.9,21c26.6,2.7,102.7-3.4,116.4-13.5c13.7-10.1-11-9.3-30-16.3c-19-7-30-44.1-26.6-61
				C566.8,1331.5,534.2,1325.6,534.2,1325.6z"/>
			
				<linearGradient id="SVGID_26_" gradientUnits="userSpaceOnUse" x1="-3656.3765" y1="1630.255" x2="-3723.0862" y2="1460.825" gradientTransform="matrix(-0.9968 7.990000e-02 7.990000e-02 0.9968 -3265.6606 95.8031)">
				<stop  offset="0" style="stop-color:#444B8C"/>
				<stop  offset="0.9964" style="stop-color:#3E4177"/>
			</linearGradient>
			<path style="fill:url(#SVGID_26_);" d="M576.3,1314.4c13.8-13.6,15.7-15.2,17.3-19.9c6-18.8-8.6-44.6-27.7-51
				c-1-0.3-13.8-4.4-18.8,1.1c-4.2,4.7,2,11.3-1,20.4c-2.7,8.5-10.1,9.2-23.9,20.4c-11.3,9.2-18.3,15-20,23
				c-3.3,16.6,16.8,40.7,34.6,40.1C543.4,1348.3,545.1,1345.1,576.3,1314.4z"/>
			<g>
				
					<linearGradient id="SVGID_27_" gradientUnits="userSpaceOnUse" x1="-5031.6255" y1="4796.5786" x2="-4957.0591" y2="4651.5889" gradientTransform="matrix(-0.7795 0.6265 0.6265 0.7795 -6282.8779 781.2827)">
					<stop  offset="0" style="stop-color:#FFC444"/>
					<stop  offset="0.9964" style="stop-color:#F36F56"/>
				</linearGradient>
				<path style="fill:url(#SVGID_27_);" d="M538.7,1351.1c0,0,14.7,16.6,37.1,11.1c20-4.9,14.9-50.9,0.3-58.2
					c-4.9-2.4-13.8-2.2-20.5,1c-3.9,1.9-5,3.9-11.6,6.9c-6,2.8-7.9,2.4-9.5,4.3c-2,2.4-2.9,7.6,3.4,20.2c-4.6-3.2-9.5-3.9-12.5-1.8
					c-0.5,0.3-1.7,1.5-2.2,3.1C521.3,1343.4,527.2,1349.2,538.7,1351.1z"/>
			</g>
		</g>
		<g>
			<linearGradient id="SVGID_28_" gradientUnits="userSpaceOnUse" x1="919.5696" y1="1573.583" x2="2262.6199" y2="1573.583">
				<stop  offset="0" style="stop-color:#311944"/>
				<stop  offset="1" style="stop-color:#893976"/>
			</linearGradient>
			<path style="fill:url(#SVGID_28_);" d="M2214,728.6l5.2,27.9l0,0l-106.4,0.3l-923.6,2.2c-23.8,0.1-45.6,19.7-48.9,43.9
				L919.8,2276.3c-3.3,24.4,34.7,61.6,58.3,63.4l409.8,31.5v-0.5l612.9,47c0,0,0,0,0,0l1.5,0.6c26.2,2,50.2-17,53.6-42.7
				c0,0,0,0.1,0,0.1l206.5-1573.3C2265.7,777,2240.3,728.5,2214,728.6z"/>
			<g>
				<linearGradient id="SVGID_29_" gradientUnits="userSpaceOnUse" x1="1736.1008" y1="4215.1201" x2="1575.959" y2="1441.2076">
					<stop  offset="3.597000e-03" style="stop-color:#F36F56"/>
					<stop  offset="1" style="stop-color:#FFC444"/>
				</linearGradient>
				<path style="fill:url(#SVGID_29_);" d="M2034.9,2345c-3.4,25.8-27.4,45-53.6,43l-1025.2-78.7c-23.6-1.8-40-23.1-36.8-47.4
					l200.4-1489.2c3.3-24.2,25.1-43.8,48.8-43.9l1031-2.8c26.3-0.1,45,20.6,41.6,46.1L2034.9,2345z"/>
				<path style="fill:#FFFFFF;" d="M2048.6,1526.1c-1.7,12.8-13.6,22.3-26.6,21.8l-902.3-32.9c-11.9-0.4-20.3-10.2-18.7-22.4
					l17.7-131.5c1.6-12.2,12.5-20.4,24.4-20.1l903.1,25.1c13,0.4,22.3,9.6,20.6,22.3L2048.6,1526.1z"/>
				<path style="fill:#FFFFFF;" d="M2013.6,1793.2c-1.7,12.8-13.6,23.7-26.6,23.1l-901.7-44.5c-11.9-0.6-20.2-12-18.5-24.2l17.9-134
					c1.6-12.2,12.6-22.6,24.5-22.2l902.2,36.4c13,0.5,22.2,12.3,20.6,25.1L2013.6,1793.2z"/>
				<linearGradient id="SVGID_30_" gradientUnits="userSpaceOnUse" x1="1100.7411" y1="1427.5282" x2="2067.05" y2="1427.5282">
					<stop  offset="3.597000e-03" style="stop-color:#F36F56"/>
					<stop  offset="1" style="stop-color:#FFC444"/>
				</linearGradient>
				<path style="opacity:0.1;fill:url(#SVGID_30_);" d="M2066.9,1387.8c-2.1-0.7-4.4-1.1-6.9-1.1l-903.1-25.1
					c-11.9-0.3-22.8,7.9-24.4,20.1l-17.8,131.5c0,0.3-0.1,0.7-0.1,1c-9.2-2.6-15-11.3-13.7-21.7l17.8-131.5
					c1.6-12.2,12.5-20.4,24.4-20.1l903.1,25.1C2059.1,1366.4,2068.3,1375.3,2066.9,1387.8z"/>
				<linearGradient id="SVGID_31_" gradientUnits="userSpaceOnUse" x1="1066.5817" y1="1681.0453" x2="2032.1434" y2="1681.0453">
					<stop  offset="3.597000e-03" style="stop-color:#F36F56"/>
					<stop  offset="1" style="stop-color:#FFC444"/>
				</linearGradient>
				<path style="opacity:0.1;fill:url(#SVGID_31_);" d="M2032.1,1649.9c-2.2-0.9-4.5-1.4-7-1.5L1123,1612
					c-11.9-0.5-22.9,10-24.5,22.2l-17.9,134c-0.1,0.9-0.2,1.7-0.2,2.5c-9.2-3-15-12.8-13.6-23.2l17.9-134
					c1.6-12.2,12.6-22.7,24.5-22.2l902.2,36.4C2023.4,1628.3,2032.2,1638.3,2032.1,1649.9z"/>
				<linearGradient id="SVGID_32_" gradientUnits="userSpaceOnUse" x1="1541.1797" y1="1774.6472" x2="1325.3331" y2="3143.4321">
					<stop  offset="3.597000e-03" style="stop-color:#F36F56"/>
					<stop  offset="1" style="stop-color:#FFC444"/>
				</linearGradient>
				<path style="fill:url(#SVGID_32_);" d="M1773.8,2009.8c2.7-20.2-11.6-38.8-31.9-39.9l-466.8-26.8c-19.3-1.1-37.2,15.2-39.8,34.8
					l-19.3,145.2c-2.6,19.7,10.8,38.5,30.1,39.8l466.5,31.9c20.3,1.4,38.9-15.7,41.6-35.9L1773.8,2009.8z"/>
				<g>
					<linearGradient id="SVGID_33_" gradientUnits="userSpaceOnUse" x1="1612.1804" y1="349.4966" x2="1658.2782" y2="1722.1793">
						<stop  offset="3.597000e-03" style="stop-color:#F36F56"/>
						<stop  offset="1" style="stop-color:#FFC444"/>
					</linearGradient>
					<path style="fill:url(#SVGID_33_);" d="M1809.1,1031.6c-6.1,46.4-30,88.3-63.9,119.1c-36.5,33.2-84.7,53.4-134.7,52.5
						c-49.8-1-91.7-22.7-118.6-56.7c-24.8-31.3-37-73-30.9-118.7c12.7-94.9,99.9-171.7,195.6-171.4
						C1753.2,856.7,1821.9,935.1,1809.1,1031.6z"/>
					<g>
						<path style="fill:#FFFFFF;" d="M1716,978.9c-5.5,41.6-43.9,74.9-85.6,74.4c-41.5-0.5-70.6-34.4-65.1-75.6
							c5.5-41.3,43.5-74.6,85-74.4C1692.1,903.5,1721.5,937.3,1716,978.9z"/>
						<path style="fill:#FFFFFF;" d="M1745.2,1150.8c-36.5,33.2-84.7,53.4-134.7,52.5c-49.8-1-91.7-22.7-118.6-56.7
							c30.8-42.9,81.6-71.4,135.5-70.7C1681.7,1076.5,1725.4,1106.6,1745.2,1150.8z"/>
					</g>
				</g>
				<path style="opacity:0.4;fill:#FFFFFF;" d="M2241.3,772l-206.4,1573c-3.4,25.8-28.9,44.9-55.1,42.9l-615.8-47.3
					c-29.3-29.9-53.3-65.9-70.5-109c-8.4-21.2-14.6-44-18.7-68c-11.4-66.4-7-141.9,9.7-216c12.8-57,32.9-113.4,58.7-164.2
					c20.6-40.6,44.8-77.8,71.8-109c19.5-22.5,40.5-44.3,62.7-65.7c26.8-25.8,55.2-51.1,84.6-76.1c68.4-58.3,141.6-115.2,209.4-175.4
					c156.4-138.8,283.4-293.9,252.8-515.1c-1-7-10.5-60.3-22.7-115.7l196.4-0.5C2224.5,725.9,2244.7,746.5,2241.3,772z"/>
			</g>
		</g>
	</g>
</g>
</svg>
