<svg xmlns="http://www.w3.org/2000/svg" width="663.971" height="508.508" viewBox="0 0 663.971 508.508">
  <g id="Group_10978" data-name="Group 10978" transform="translate(-2450.26 -5320.331)">
    <g id="SIGN-EVER-Others-In-Car-SDL725429180-1-b4a23" transform="translate(2450.26 5320.331)">
      <path id="Path_11674" data-name="Path 11674" d="M318,573.93q-.021-2.151-.042-4.3s0,.151,0,.151q0-3.236,0-6.474s0,.169,0,.169c2.4-94.384,53.26-150.646,140.05-179.167-4.309-3.379-9.274-7.055-13.994-11.022-7.677-6.455-8.4-15.341-2.043-23.187a34.885,34.885,0,0,1,16.163-11.574c27.568-9.04,55.059-10.291,82.153,1.938a52.454,52.454,0,0,1,8.179,4.656c12.229,8.45,11.811,24.314-.795,32.277-3.708,2.342-7.472,4.6-12.422,7.637,20.52,5.676,39.786,12.167,57.248,22.934a7.937,7.937,0,0,0,4.493,3.06c.689.9,1.281,1.942,2.677,1.773,11.115,7.56,20.306,17.418,30.759,25.768,1,4.264,5.355,5.757,7.485,9.085a4.239,4.239,0,0,0,1.866,3.464,176.383,176.383,0,0,1,27.209,48.716c.355.946.869,1.833,1.309,2.749a23.617,23.617,0,0,0,.613,4.248c4.446,13.422,6.852,27.253,8.339,41.27q.011,1.494.022,2.991c.148,4.212-1.313,8.44.149,12.634A181.53,181.53,0,0,1,651.084,655.8a143.349,143.349,0,0,1-39.143,42.988c-4.748,3.435-8.957,7.6-13.539,11.278-2.339,1.876-2.557,3.759-1.53,6.505,4.485,11.974,8.94,23.967,12.987,36.092,1.186,3.553,2.919,4.663,6.333,4.247a43.272,43.272,0,0,1,5.036-.058c12.766-.036,12.587-.042,12.191,12.863-.114,3.631-1.449,3.953-4.468,3.86-8.183-.251-16.388-.443-24.562-.108-4.047.166-5.4-1.624-6.55-4.989-4.651-13.625-9.753-27.1-14.215-40.782-1.684-5.168-3.564-6.719-8.8-4.11a159.728,159.728,0,0,1-50.787,15.573c-30.8,4.019-60.636-.1-89.775-10.5-5.621-2.008-12.1-7.246-16.8-4.648-4.157,2.295-5.571,9.882-7.789,15.3-3.97,9.7-7.709,19.5-11.379,29.316-1.142,3.055-2.53,4.968-6.239,4.857-8.393-.253-16.8-.229-25.2-.155-2.881.025-3.922-.857-4.065-3.936-.578-12.469-.7-12.463,11.918-12.556a22.4,22.4,0,0,1,3.774,0c5.262.869,7.476-1.563,9.238-6.469,3.893-10.837,8.569-21.4,13.111-31.994,1.386-3.234.879-4.725-2.2-7-8.183-6.044-17.621-10.6-23.9-19.063-.418-.561-1.475-.648-2.237-.955q-10.395-11.9-20.784-23.8c-9.615-14.918-18.608-30.15-23.9-47.242a4.932,4.932,0,0,0-1.977-4.448q-.863-2.537-1.724-5.073Q321.051,592.365,318,573.93Zm179.69,156.157c93.835-.6,166.813-73.519,168.965-166.679,2.121-91.838-75.527-172.1-169.594-171.051-93.231,1.038-169.042,76.6-168.49,169.247C329.125,654.959,403.792,729.331,497.688,730.087Zm3.073-377.955a59.8,59.8,0,0,1,15.275,1.453c3.738.871,9.367,1.055,9.3,5.8-.072,5.014-5.932,3.513-9.189,4.032-4.221.674-5.959,2.068-5.281,6.35a30.56,30.56,0,0,1,.073,5.661c-.076,2.377.892,3.549,3.363,3.261,10.686-1.246,20.39-4.888,28.341-12.294,5.128-4.776,4.7-9.6-1.026-13.6-5.589-3.9-12.08-5.77-18.6-7.383-23.008-5.695-45.479-3.481-67.108,5.752-9.2,3.93-9.469,10.305-1.949,16.9,6.1,5.345,13.552,7.24,21.115,9.108,10.053,2.482,9.987,2.534,9.371-7.861-.171-2.887-.846-4.673-4.082-5.128a31.819,31.819,0,0,1-7.206-2.18c-1.456-.579-3.806-.807-3.7-2.813.092-1.784,2.254-2.362,3.753-2.994C481.5,352.692,490.279,352.158,500.76,352.132Z" transform="translate(-216.402 -331.516)" fill="#105cbf" fill-rule="evenodd"/>
      <path id="Path_11675" data-name="Path 11675" d="M572.251,432.072c-10.453-8.351-19.643-18.208-30.761-25.768l3.225-1.394c5.607-1.258,11.3-2.43,10.929-10.135l.29-.069c1.378.1,2.849.535,3.758-1.047,25.762-7.9,51.4-16.469,78.106-20.559,28.8-4.41,57-12.177,86-15.255,15.2-1.613,30.491-2.523,45.586,1.659,2.932.813,5.644,1.948,5.859,4.775.254,3.364-3.013,4.111-5.75,4.5-14.284,2.032-28.558,4.163-42.878,5.9-6.629.8-13.218,2.442-20,1.7-.978-.107-2.433-.14-2.6,1.094a3.975,3.975,0,0,0,1.276,2.62c4.514,4.819,10.763,4.3,16.405,4.508,17.65.661,35.136-2.406,52.755-2.979,11.465-.373,22.909-1.58,34.283,2.16-16.657,2.029-33.767-.892-50.118,4.135s-33.4,2.567-51.743,3.621c10.49,10.393,21.736,5.125,32.017,6.875-8.664,3.772-17.823,6.418-27.186,6.536-16.607.207-32.987,1.124-49.286,4.793-12.31,2.771-24.085,6.982-35.82,11.3-12.5,4.6-25.132,8.161-38.473,8.573C582.692,429.781,577.6,431.657,572.251,432.072Z" transform="translate(-158.228 -325.017)" fill="#e47b1b" fill-rule="evenodd"/>
      <path id="Path_11676" data-name="Path 11676" d="M604.9,517.856c-1.488-14.018-3.892-27.848-8.339-41.271a23.561,23.561,0,0,1-.612-4.247c26.71-7.474,54.288-10.641,81.368-16.307,24.819-5.194,49.793-10.066,75.477-7.656,5.413.508,10.143,2.447,14.851,4.741,1.659.81,3.733,1.957,3.338,4.034-.325,1.722-2.57,1.968-4.173,2.259-7.835,1.428-15.668,2.908-23.547,4.063-12.652,1.858-25.338,3.431-38.125,4.124-2.3.125-6.231-.684-6.377,2.287-.161,3.321,3.806,3.966,6.6,4.58,12.265,2.687,24.627,1.793,36.951.566,16.492-1.642,32.958-3.738,49.58-2.31,3.035.26,6.292-.075,9.158,1.963-2.573,3.529-6.281,2.879-9.485,2.463a101.189,101.189,0,0,0-39.934,2.524c-14.259,3.874-28.762,2.436-43.189,2.894-2.224.072-4.615-.56-6.968,1.452,8.859,10.062,20.7,3.465,31.69,5.948-5.018,2.869-9.886,3.579-14.586,4.6a139.357,139.357,0,0,1-29.351,2.824c-23.826.042-46.293,6.54-68.389,14.712C615.538,514.052,610.213,515.937,604.9,517.856Z" transform="translate(-144.055 -301.269)" fill="#51b039" fill-rule="evenodd"/>
      <path id="Path_11677" data-name="Path 11677" d="M371.175,598.166q10.391,11.9,20.784,23.8c-13.493,13.551-29.47,24.236-43.268,37.431-4.788,4.578-10.151,8.6-14.012,14.1-7.472,4.636-12.391,11.743-17.807,18.422,7.046-4.9,13.942-9.914,19.3-16.712,7.267-4.018,12.69-10.333,19.157-15.347q-.124,1.745-.249,3.483c-12.571,12.844-25.718,25.183-37.539,38.683-10.557,12.057-22.544,22.6-33.478,34.214-1.511,1.6-2.842,5.218-6.029,1.369-.852-1.03-2.218.533-2.926,1.55-7.506,10.783-17.168,19.651-25.9,29.346-1.4,1.554-2.827,2.775-4.8,1.75-1.849-.962-1.212-2.888-.916-4.521.77-4.236,3.276-7.641,5.319-11.284.662-1.182,1.767-2.723.527-4.033-1.324-1.4-2.49.967-4.382.482,1.969-6.645,5.607-12.418,9.143-18.141,11.407-18.447,20.742-38.191,35.336-54.646,12.647-14.26,27.126-26.5,41.088-39.344,13.664-12.569,28.125-24.4,39.088-39.649C369.93,598.661,370.641,598.478,371.175,598.166Z" transform="translate(-235.876 -262.121)" fill="#51b039" fill-rule="evenodd"/>
      <path id="Path_11678" data-name="Path 11678" d="M346.8,565.813a4.933,4.933,0,0,1,1.977,4.447c-1.729-1.2-2.936-.409-4.2.9q-30.624,31.72-61.3,63.4a36.514,36.514,0,0,1-2.653,2.662c-1.56,1.313-3.4,3.465-5.287,2.5-2.479-1.265.616-3.644-.106-6.156-5.728,4.437-8.409,11.084-13.421,15.57-1.945,1.74-2.15,7.006-7.209,4.019-1.043-.615-2.472,2.219-2.871,3.624-1.706,6.033-6.7,10-9.313,15.474-1.266,2.651-3.671,3.951-5.045-.373.867-8.274,5.422-14.714,10.293-21.056,2.494-3.249,5.815-6.173,5.579-10.865l.35-.261-.3.309c-4.358,2.657-6.456,7.361-9.884,10.84-1.125,1.14-2.332,4.919-4.9,1.178,10.369-13.845,17.1-29.867,26.706-44.227,14.5-21.683,32.809-39.935,50.621-58.643,7.89-8.286,14.391-17.822,23.137-25.292q3.053,18.451,6.106,36.881c-7.874,5.975-14.586,13.193-21.545,20.146-9.009,6.907-16.3,15.426-23.127,24.427,8.606-6.82,17.527-13.2,25.044-21.219Z" transform="translate(-237.374 -281.459)" fill="#e47b1b" fill-rule="evenodd"/>
      <path id="Path_11679" data-name="Path 11679" d="M603.323,521.719c-1.462-4.194,0-8.423-.149-12.634,5.844,1.138,10.369-2.776,15.546-4.176,4.425-1.194,8.547-3.472,12.94-4.834,7.271-2.253,14.261-5.782,22.448-2.325,3.458,1.461,7.964.21,11.643-1.46,6.518-2.963,13.431-3.059,20.345-3.338,2.52-.1,5.846.121,6.229,2.566.394,2.5-2.744,3.956-5.119,4.708-7.584,2.4-15.215,4.66-22.857,6.873C644.239,512.927,624.37,519.788,603.323,521.719Z" transform="translate(-142.307 -289.508)" fill="#51b039" fill-rule="evenodd"/>
      <path id="Path_11680" data-name="Path 11680" d="M573.705,432.954a4.233,4.233,0,0,1-1.866-3.465c19.322-7.245,39.442-12.183,58.5-20.184,7.552-3.171,14.512-5.249,23.451-3.143,6.906,1.627,15.084-2.136,22.7-3.507,4.327-.779,8.636-1.939,13.075-.95,1.242.278,3.375-.43,3.161,1.932-.143,1.573-1.812,1.515-2.98,1.734-18.711,3.506-37.364,7.379-56.164,10.334-15.6,2.451-30.471,7.381-45.542,11.664C583.125,428.762,577.577,428.8,573.705,432.954Z" transform="translate(-150.33 -313.349)" fill="#e47b1b" fill-rule="evenodd"/>
      <path id="Path_11681" data-name="Path 11681" d="M765.195,385.675c-11.877,3.5-23.485.527-35.14-1.768C741.822,382.521,753.479,383.79,765.195,385.675Z" transform="translate(-109.154 -318.034)" fill="#e47b1b" fill-rule="evenodd"/>
      <path id="Path_11682" data-name="Path 11682" d="M557.124,386.868c.369,7.705-5.321,8.877-10.932,10.136.04-.735.08-1.469.116-2.206q1.353-.325,2.708-.645c-.177-.257-.3-.679-.534-.742a2.194,2.194,0,0,0-2.467,1.029c-2.171.035-4.479-.287-5.72,2.184a7.944,7.944,0,0,1-4.492-3.062A36.363,36.363,0,0,1,557.124,386.868Z" transform="translate(-159.708 -317.111)" fill="#e47b1b" fill-rule="evenodd"/>
      <path id="Path_11684" data-name="Path 11684" d="M736.259,475.685c6.625-1.278,13.257-.74,19.875-.461a62.581,62.581,0,0,1,15.377,2.208C759.677,478.62,747.961,477.357,736.259,475.685Z" transform="translate(-107.539 -294.209)" fill="#51b039" fill-rule="evenodd"/>
      <path id="Path_11686" data-name="Path 11686" d="M331.957,653.309q.125-1.74.25-3.483c4.92-4.808,9.936-9.5,15.841-13.117.236.244.459.5.674.754C344.322,644,338.988,649.552,331.957,653.309Z" transform="translate(-212.759 -252.09)" fill="#51b039" fill-rule="evenodd"/>
      <path id="Path_11687" data-name="Path 11687" d="M354.274,631.466a17.26,17.26,0,0,1-8.877,7.566q-.32-.383-.672-.75c2.688-2.8,5.022-6.006,8.749-7.613C353.742,630.933,354.009,631.2,354.274,631.466Z" transform="translate(-209.436 -253.662)" fill="#51b039" fill-rule="evenodd"/>
      <path id="Path_11688" data-name="Path 11688" d="M352.69,630.477a11.381,11.381,0,0,1,5.013-3.806q.431.427.854.86a5.951,5.951,0,0,1-5.021,3.793Q353.115,630.9,352.69,630.477Z" transform="translate(-207.363 -254.702)" fill="#51b039" fill-rule="evenodd"/>
      <path id="Path_11689" data-name="Path 11689" d="M556.71,385.994c-.91,1.583-2.38,1.149-3.758,1.047C553.947,385.779,555.331,385.892,556.71,385.994Z" transform="translate(-155.245 -317.354)" fill="#bfbfbf" fill-rule="evenodd"/>
      <path id="Path_11690" data-name="Path 11690" d="M356.668,626.92q.671-.6,1.341-1.2.39.405.8.792c-.429.422-.859.845-1.285,1.27C357.24,627.491,356.956,627.2,356.668,626.92Z" transform="translate(-206.328 -254.951)" fill="#bfbfbf" fill-rule="evenodd"/>
      <path id="Path_11691" data-name="Path 11691" d="M357.732,625.84c.427-.412.877-1.012,1.38-.169.088.148-.379.63-.587.959C358.256,626.374,357.992,626.109,357.732,625.84Z" transform="translate(-206.051 -255.073)" fill="#bfbfbf" fill-rule="evenodd"/>
      <path id="Path_11692" data-name="Path 11692" d="M318.061,520.61v-.152l-.5.059Z" transform="translate(-216.506 -282.345)" fill="#e47b1b" fill-rule="evenodd"/>
      <path id="Path_11693" data-name="Path 11693" d="M318.06,515.61v-.169l-.494.079Z" transform="translate(-216.504 -283.65)" fill="#e47b1b" fill-rule="evenodd"/>
      <path id="Path_11694" data-name="Path 11694" d="M353.8,630.536q-.668.59-1.338,1.18c-.262-.265-.529-.529-.8-.795.429-.411.862-.818,1.291-1.229C353.24,629.973,353.522,630.255,353.8,630.536Z" transform="translate(-207.63 -253.916)" fill="#bfbfbf" fill-rule="evenodd"/>
      <path id="Path_11700" data-name="Path 11700" d="M250.015,616.085l.3-.309-.35.261Z" transform="translate(-234.096 -257.538)" fill="#bfbfbf" fill-rule="evenodd"/>
      <path id="Path_11701" data-name="Path 11701" d="M543.906,393.108a2.192,2.192,0,0,1,2.467-1.029c.229.063.357.485.534.742q-1.355.322-2.707.646Z" transform="translate(-157.599 -315.777)" fill="#fefefe" fill-rule="evenodd"/>
      <path id="Path_11702" data-name="Path 11702" d="M396.735,479.373c7.376-1.488,12.236,1.177,17.811,5.325,9.36,6.963,20.136,12.023,30.326,17.867,1.636.939,3.423,1.642,4.968,2.7,6.827,4.7,13.119,7.321,21.338,1.5,6.494-4.6,13.344-.526,19.084,3.7,2.5,1.844,4.364,2.274,7.232.539,19.912-12.049,39.985-23.832,59.886-35.9,2.542-1.542,6.61-2.353,5.738-7.1-.3-1.649,1.434-1.7,2.686-1.8,4.789-.4,9.577-.8,14.816-1.241-1.531,5.928-4.572,12-8.69,13.622-3.652,1.439-8.049,2.333-11.628,4.411-19.95,11.579-39.714,23.482-59.69,35.016-3.847,2.223-2.532,5.244-2.591,8.177-.2,9.806-5.042,17.052-13.447,19.97-9.105,3.161-18.834.438-24.42-6.744a19.245,19.245,0,0,1-3.753-15.449c.665-4.047-.848-5.915-4.185-7.824-13.835-7.91-27.142-16.84-41.381-23.907C404.649,489.177,399.532,486.433,396.735,479.373Z" transform="translate(-195.9 -296.785)" fill="#105cbf" fill-rule="evenodd"/>
      <path id="Path_11703" data-name="Path 11703" d="M355,533.649c-9.235.147-16.816-6.857-16.963-15.676-.151-9.01,6.935-16.188,16.2-16.406a16.356,16.356,0,0,1,16.286,15.685A16,16,0,0,1,355,533.649Z" transform="translate(-211.177 -287.262)" fill="#105cbf" fill-rule="evenodd"/>
      <path id="Path_11704" data-name="Path 11704" d="M479.734,627.654a16.138,16.138,0,0,1-16.263,15.725c-8.6.033-15.667-7.705-15.622-17.1.043-8.723,7.17-15.2,16.631-15.108C473.261,611.252,479.875,618.4,479.734,627.654Z" transform="translate(-182.598 -258.736)" fill="#105cbf" fill-rule="evenodd"/>
      <path id="Path_11705" data-name="Path 11705" d="M479.7,408.613c-.051,8.692-7.188,15.482-16.347,15.553-8.622.066-15.438-7.147-15.47-16.37-.031-8.966,7.336-15.976,16.7-15.888C473.164,391.989,479.757,399.276,479.7,408.613Z" transform="translate(-182.588 -315.8)" fill="#105cbf" fill-rule="evenodd"/>
      <path id="Path_11706" data-name="Path 11706" d="M573.03,533.464c-8.844-.114-16.025-7.836-15.729-16.92a15.507,15.507,0,0,1,15.655-14.833c9.508.058,16.82,6.992,16.744,15.88A16.141,16.141,0,0,1,573.03,533.464Z" transform="translate(-154.116 -287.223)" fill="#105cbf" fill-rule="evenodd"/>
      <path id="Path_11707" data-name="Path 11707" d="M416.591,421.391a8.72,8.72,0,0,1-9.366,8.777,8.91,8.91,0,0,1-8.76-9.457c.268-4.83,4.637-8.6,9.893-8.547C412.993,412.216,416.706,416.378,416.591,421.391Z" transform="translate(-195.454 -310.528)" fill="#105cbf" fill-rule="evenodd"/>
      <path id="Path_11708" data-name="Path 11708" d="M526.316,421.369c.083,4.808-4.226,8.983-9.343,9.054a9.094,9.094,0,0,1-8.9-8.782c-.127-4.885,4.657-9.556,9.735-9.5C522.234,412.183,526.231,416.522,526.316,421.369Z" transform="translate(-166.925 -310.535)" fill="#105cbf" fill-rule="evenodd"/>
      <path id="Path_11709" data-name="Path 11709" d="M376.557,461.481a9.141,9.141,0,0,1-9.143,9.114c-4.789-.073-9.291-4.634-9.159-9.283.127-4.536,5.394-9.32,10.184-9.249C372.818,452.129,376.533,456.438,376.557,461.481Z" transform="translate(-205.916 -300.145)" fill="#105cbf" fill-rule="evenodd"/>
      <path id="Path_11710" data-name="Path 11710" d="M566.489,462.084c-.025,4.63-4.206,8.436-9.222,8.395a9.386,9.386,0,0,1-9.061-9.427c.115-4.735,4.807-9.082,9.639-8.929C562.388,452.267,566.517,457.024,566.489,462.084Z" transform="translate(-156.481 -300.129)" fill="#105cbf" fill-rule="evenodd"/>
      <path id="Path_11711" data-name="Path 11711" d="M376.633,571.323c-.2,4.964-4.5,8.609-9.833,8.324a8.8,8.8,0,0,1-8.508-9.055c.045-5.113,4.686-9.015,10.256-8.625C373.507,562.318,376.84,566.174,376.633,571.323Z" transform="translate(-205.905 -271.548)" fill="#105cbf" fill-rule="evenodd"/>
      <path id="Path_11712" data-name="Path 11712" d="M557.778,561.936c4.948.016,8.6,3.755,8.661,8.883.064,5.173-3.834,9-9.219,9.05a8.851,8.851,0,0,1-9.013-9.2C548.267,565.6,552.3,561.921,557.778,561.936Z" transform="translate(-156.48 -271.55)" fill="#105cbf" fill-rule="evenodd"/>
      <path id="Path_11713" data-name="Path 11713" d="M517.579,620.02c-5.3.108-9.248-3.616-9.292-8.764a9.1,9.1,0,0,1,8.981-9.272,8.964,8.964,0,0,1,8.921,8.617A8.793,8.793,0,0,1,517.579,620.02Z" transform="translate(-166.869 -261.128)" fill="#105cbf" fill-rule="evenodd"/>
      <path id="Path_11714" data-name="Path 11714" d="M408.49,602.005c4.552.066,8.247,4.377,8.021,9.356a8.961,8.961,0,0,1-9.531,8.6c-4.882-.19-8.353-3.939-8.349-9.018C398.633,605.889,403,601.924,408.49,602.005Z" transform="translate(-195.407 -261.122)" fill="#105cbf" fill-rule="evenodd"/>
    </g>
  </g>
</svg>
