<svg id="Android_robot_light_Red" xmlns="http://www.w3.org/2000/svg" width="582.752" height="582.752" viewBox="0 0 582.752 582.752">
  <path id="Path_145" data-name="Path 145" d="M437.064,582.752H145.688A145.693,145.693,0,0,1,0,437.071V145.688A145.693,145.693,0,0,1,145.682,0H437.064A145.688,145.688,0,0,1,582.752,145.688V437.064A145.688,145.688,0,0,1,437.064,582.752" transform="translate(0 0)" fill="#ff8192" fill-rule="evenodd"/>
  <path id="Path_146" data-name="Path 146" d="M273.165,163.9h163.9A81.955,81.955,0,0,0,445.441.419C442.655.264,439.9,0,437.064,0H145.688A145.693,145.693,0,0,0,0,145.682V437.064C0,286.207,122.3,163.906,273.159,163.9" fill="#ffb4be" fill-rule="evenodd"/>
  <path id="Path_147" data-name="Path 147" d="M177.688,161.688A145.688,145.688,0,1,0,323.376,307.376V16A145.688,145.688,0,0,1,177.688,161.688" transform="translate(259.376 129.688)" fill="#ff546b" fill-rule="evenodd"/>
  <g id="Group_16" data-name="Group 16" transform="translate(91.055 109.265)">
    <path id="Path_148" data-name="Path 148" d="M272.954,32H18V159.477a18.206,18.206,0,0,0,18.211,18.211H254.743a18.206,18.206,0,0,0,18.211-18.211Z" transform="translate(54.844 150.112)" fill="#fff" fill-rule="evenodd"/>
    <path id="Path_149" data-name="Path 149" d="M64.633,59.317a27.317,27.317,0,1,0-54.633,0v91.055a27.317,27.317,0,1,0,54.633,0Z" transform="translate(-10 150.112)" fill="#fff" fill-rule="evenodd"/>
    <path id="Path_150" data-name="Path 150" d="M102.633,59.317a27.317,27.317,0,1,0-54.633,0v91.055a27.317,27.317,0,1,0,54.633,0Z" transform="translate(298.009 150.112)" fill="#fff" fill-rule="evenodd"/>
    <path id="Path_151" data-name="Path 151" d="M18,175.9H272.954A127.654,127.654,0,0,0,224.522,75.886l29-50.226a9.105,9.105,0,1,0-15.771-9.106l-28.327,49.07A127.55,127.55,0,0,0,81.52,65.605L53.2,16.554A9.105,9.105,0,1,0,37.431,25.66l29,50.226A127.241,127.241,0,0,0,18,175.9Zm186.663-63.739A13.658,13.658,0,1,1,191,125.82a13.658,13.658,0,0,1,13.658-13.658Zm-118.372,0A13.658,13.658,0,1,1,72.633,125.82,13.658,13.658,0,0,1,86.291,112.162Z" transform="translate(54.844 -12)" fill="#fff" fill-rule="evenodd"/>
  </g>
</svg>
