<svg height="512" viewBox="0 0 64 64" width="512" xmlns="http://www.w3.org/2000/svg"><g fill-rule="evenodd"><path d="m48 64h-32a16.0007 16.0007 0 0 1 -16-16v-32a16.0007 16.0007 0 0 1 16-16h32a16 16 0 0 1 16 16v32a16 16 0 0 1 -16 16" fill="#32dc82"/><path d="m30 18h18a9.0006 9.0006 0 0 0 .92-17.954c-.306-.017-.609-.046-.92-.046h-32a16.0007 16.0007 0 0 0 -16 16v32a30.0007 30.0007 0 0 1 30-30" fill="#4bf59b"/><path d="m48 32a16 16 0 1 0 16 16v-32a16 16 0 0 1 -16 16" fill="#19c369"/><g fill="#fff"><path d="m46 32h-28v14a1.9994 1.9994 0 0 0 2 2h24a1.9994 1.9994 0 0 0 2-2z"/><path d="m16 35a3 3 0 0 0 -6 0v10a3 3 0 0 0 6 0z"/><path d="m54 35a3 3 0 0 0 -6 0v10a3 3 0 0 0 6 0z"/><path d="m18 30h28a14.0194 14.0194 0 0 0 -5.319-10.984l3.185-5.516a1 1 0 0 0 -1.732-1l-3.111 5.389a14.008 14.008 0 0 0 -14.047-.002l-3.11-5.387a1 1 0 0 0 -1.732 1l3.185 5.516a13.9741 13.9741 0 0 0 -5.319 10.984zm20.5-7a1.5 1.5 0 1 1 -1.5 1.5 1.5005 1.5005 0 0 1 1.5-1.5zm-13 0a1.5 1.5 0 1 1 -1.5 1.5 1.5005 1.5005 0 0 1 1.5-1.5z"/></g></g></svg>