<svg id="Apple_logo_light_red" xmlns="http://www.w3.org/2000/svg" width="1296.462" height="1296.462" viewBox="0 0 1296.462 1296.462">
  <g id="Group_16" data-name="Group 16" transform="translate(0 0)">
    <path id="Path_145" data-name="Path 145" d="M972.346,1296.462H324.115c-178.987,0-324.1-145.1-324.115-324.1V324.115C0,145.129,145.1.016,324.1,0H972.346c179,0,324.115,145.111,324.115,324.115V972.346c0,179-145.111,324.115-324.115,324.115" transform="translate(0 0)" fill="#ff8192" fill-rule="evenodd"/>
    <path id="Path_146" data-name="Path 146" d="M607.717,364.63h364.63A182.327,182.327,0,0,0,990.983.932C984.784.587,978.646,0,972.346,0H324.115C145.129,0,.016,145.1,0,324.1V972.346c0-335.615,272.073-607.7,607.7-607.716" transform="translate(0 0)" fill="#ffb4be" fill-rule="evenodd"/>
    <path id="Path_147" data-name="Path 147" d="M356.115,340.115C177.111,340.115,32,485.227,32,664.231S177.111,988.346,356.115,988.346,680.231,843.235,680.231,664.231V16c0,179-145.111,324.115-324.115,324.115" transform="translate(616.231 308.115)" fill="#ff546b" fill-rule="evenodd"/>
  </g>
  <path id="Path_148" data-name="Path 148" d="M483.4,24.855a157.85,157.85,0,0,1-40.458,103.514,144.482,144.482,0,0,1-100.571,56.74,14.265,14.265,0,0,1-14.559-14.261h-.2A162.2,162.2,0,0,1,370.533,66.24,165.382,165.382,0,0,1,422.816,27a170.72,170.72,0,0,1,45.218-15.294,13.3,13.3,0,0,1,15.31,13.147ZM626.148,586.547a401.6,401.6,0,0,1-39.773,71.508,363.517,363.517,0,0,1-51.234,61.926A99.463,99.463,0,0,1,469.3,748.989a165.119,165.119,0,0,1-60.824-14.524A174.5,174.5,0,0,0,343,719.981a180.424,180.424,0,0,0-67.335,14.484,181.334,181.334,0,0,1-58.183,15.294,93.6,93.6,0,0,1-67.335-29.778A380.751,380.751,0,0,1,96.56,655.867,443.253,443.253,0,0,1,39.892,543.318,412.153,412.153,0,0,1,16.086,409.154,244.993,244.993,0,0,1,48.256,280.987a188.842,188.842,0,0,1,67.376-68.145,181.243,181.243,0,0,1,91.089-25.706,214.288,214.288,0,0,1,70.455,16.408,226.637,226.637,0,0,0,55.884,16.429,333.708,333.708,0,0,0,61.965-19.366,204.937,204.937,0,0,1,84.225-14.95A193.834,193.834,0,0,1,585.9,223.963a39.163,39.163,0,0,1,1.185,59.131,150.946,150.946,0,0,0-50.392,117.9,156.124,156.124,0,0,0,51.279,117.654,172.663,172.663,0,0,0,23.193,18.576A40.235,40.235,0,0,1,625.956,586.3c.235.142.213.2.192.243Z" transform="translate(308.03 222.527)" fill="#fff"/>
</svg>
